Pilsner-Black.ufo
<glyph name="exclam" format="1">
  <advance width="292"/>
  <unicode hex="0021"/>
  <outline>
    <contour>
      <point x="251" y="595" type="line"/>
      <point x="242" y="402" type="line"/>
      <point x="195" y="192" type="line"/>
      <point x="96" y="192" type="line"/>
      <point x="49" y="402" type="line"/>
      <point x="41" y="595" type="line"/>
    </contour>
    <contour>
      <point x="253" y="81" type="line"/>
      <point x="247" y="0" type="line"/>
      <point x="45" y="0" type="line"/>
      <point x="39" y="81" type="line"/>
      <point x="45" y="163" type="line"/>
      <point x="247" y="163" type="line"/>
    </contour>
  </outline>
</glyph>
<glyph name="quotedbl" format="1">
  <advance width="490"/>
  <unicode hex="0022"/>
  <outline>
    <contour>
      <point x="459" y="466" type="line"/>
      <point x="418" y="290" type="line"/>
      <point x="310" y="290" type="line"/>
      <point x="269" y="466" type="line"/>
      <point x="277" y="595" type="line"/>
      <point x="451" y="595" type="line"/>
    </contour>
    <contour>
      <point x="221" y="466" type="line"/>
      <point x="180" y="290" type="line"/>
      <point x="72" y="290" type="line"/>
      <point x="31" y="466" type="line"/>
      <point x="39" y="595" type="line"/>
      <point x="213" y="595" type="line"/>
    </contour>
  </outline>
</glyph>
<glyph name="numbersign" format="1">
  <advance width="668"/>
  <unicode hex="0023"/>
  <outline>
    <contour>
      <point x="650" y="366" type="line"/>
      <point x="535" y="359" type="line"/>
      <point x="514" y="287" type="line"/>
      <point x="497" y="243" type="line"/>
      <point x="611" y="236" type="line"/>
      <point x="611" y="132" type="line"/>
      <point x="450" y="121" type="line"/>
      <point x="399" y="-10" type="line"/>
      <point x="315" y="19" type="line"/>
      <point x="343" y="115" type="line"/>
      <point x="285" y="111" type="line"/>
      <point x="202" y="117" type="line"/>
      <point x="153" y="-10" type="line"/>
      <point x="69" y="19" type="line"/>
      <point x="100" y="125" type="line"/>
      <point x="18" y="132" type="line"/>
      <point x="18" y="236" type="line"/>
      <point x="134" y="243" type="line"/>
      <point x="156" y="318" type="line"/>
      <point x="172" y="358" type="line"/>
      <point x="57" y="366" type="line"/>
      <point x="57" y="470" type="line"/>
      <point x="220" y="480" type="line"/>
      <point x="270" y="607" type="line"/>
      <point x="353" y="578" type="line"/>
      <point x="326" y="487" type="line"/>
      <point x="383" y="491" type="line"/>
      <point x="468" y="484" type="line"/>
      <point x="516" y="607" type="line"/>
      <point x="599" y="578" type="line"/>
      <point x="569" y="476" type="line"/>
      <point x="650" y="470" type="line"/>
    </contour>
    <contour>
      <point x="415" y="351" type="line"/>
      <point x="350" y="347" type="line"/>
      <point x="287" y="351" type="line"/>
      <point x="268" y="287" type="line"/>
      <point x="254" y="251" type="line"/>
      <point x="318" y="255" type="line"/>
      <point x="382" y="251" type="line"/>
      <point x="402" y="318" type="line"/>
    </contour>
  </outline>
</glyph>
<glyph name="dollar" format="1">
  <advance width="578"/>
  <unicode hex="0024"/>
  <outline>
    <contour>
      <point x="551" y="512" type="line"/>
      <point x="519" y="372" type="line"/>
      <point x="295" y="438" type="line"/>
      <point x="243" y="423" type="line"/>
      <point x="243" y="401" type="line"/>
      <point x="537" y="287" type="line"/>
      <point x="537" y="113" type="line"/>
      <point x="377" y="67" type="line"/>
      <point x="392" y="-10" type="line"/>
      <point x="191" y="-10" type="line"/>
      <point x="206" y="67" type="line"/>
      <point x="26" y="94" type="line"/>
      <point x="55" y="237" type="line"/>
      <point x="263" y="157" type="line"/>
      <point x="348" y="172" type="line"/>
      <point x="348" y="191" type="line"/>
      <point x="53" y="305" type="line"/>
      <point x="53" y="482" type="line"/>
      <point x="206" y="527" type="line"/>
      <point x="191" y="605" type="line"/>
      <point x="392" y="605" type="line"/>
      <point x="377" y="527" type="line"/>
    </contour>
  </outline>
</glyph>
<glyph name="percent" format="1">
  <advance width="975"/>
  <unicode hex="0025"/>
  <outline>
    <contour>
      <point x="942" y="177" type="line"/>
      <point x="922" y="26" type="line"/>
      <point x="790" y="-5" type="line"/>
      <point x="679" y="-5" type="line"/>
      <point x="547" y="25" type="line"/>
      <point x="527" y="176" type="line"/>
      <point x="534" y="227" type="line"/>
      <point x="528" y="216" type="line"/>
      <point x="346" y="-16" type="line"/>
      <point x="262" y="16" type="line"/>
      <point x="385" y="258" type="line"/>
      <point x="296" y="237" type="line"/>
      <point x="185" y="237" type="line"/>
      <point x="53" y="267" type="line"/>
      <point x="33" y="418" type="line"/>
      <point x="53" y="569" type="line"/>
      <point x="185" y="600" type="line"/>
      <point x="296" y="600" type="line"/>
      <point x="428" y="570" type="line"/>
      <point x="448" y="419" type="line"/>
      <point x="441" y="367" type="line"/>
      <point x="447" y="379" type="line"/>
      <point x="629" y="611" type="line"/>
      <point x="713" y="579" type="line"/>
      <point x="590" y="337" type="line"/>
      <point x="679" y="358" type="line"/>
      <point x="790" y="358" type="line"/>
      <point x="922" y="328" type="line"/>
    </contour>
    <contour>
      <point x="297" y="418" type="line"/>
      <point x="284" y="520" type="line"/>
      <point x="241" y="527" type="line"/>
      <point x="198" y="520" type="line"/>
      <point x="184" y="419" type="line"/>
      <point x="198" y="317" type="line"/>
      <point x="240" y="310" type="line"/>
      <point x="284" y="317" type="line"/>
    </contour>
    <contour>
      <point x="791" y="176" type="line"/>
      <point x="778" y="278" type="line"/>
      <point x="735" y="285" type="line"/>
      <point x="692" y="278" type="line"/>
      <point x="678" y="177" type="line"/>
      <point x="692" y="75" type="line"/>
      <point x="734" y="68" type="line"/>
      <point x="778" y="75" type="line"/>
    </contour>
  </outline>
</glyph>
<glyph name="ampersand" format="1">
  <advance width="586"/>
  <unicode hex="0026"/>
  <outline>
    <contour>
      <point x="584" y="375" type="line"/>
      <point x="481" y="194" type="line"/>
      <point x="573" y="87" type="line"/>
      <point x="427" y="-14" type="line"/>
      <point x="363" y="60" type="line"/>
      <point x="271" y="-2" type="line"/>
      <point x="97" y="-2" type="line"/>
      <point x="31" y="43" type="line"/>
      <point x="22" y="148" type="line"/>
      <point x="47" y="258" type="line"/>
      <point x="163" y="303" type="line"/>
      <point x="106" y="371" type="line"/>
      <point x="86" y="473" type="line"/>
      <point x="140" y="595" type="line"/>
      <point x="471" y="595" type="line"/>
      <point x="440" y="446" type="line"/>
      <point x="254" y="485" type="line"/>
      <point x="248" y="469" type="line"/>
      <point x="421" y="267" type="line"/>
      <point x="421" y="375" type="line"/>
    </contour>
    <contour>
      <point x="310" y="124" type="line"/>
      <point x="224" y="230" type="line"/>
      <point x="196" y="203" type="line"/>
      <point x="203" y="106" type="line"/>
      <point x="244" y="84" type="line"/>
    </contour>
  </outline>
</glyph>
<glyph name="quotesingle" format="1">
  <advance width="252"/>
  <unicode hex="0027"/>
  <outline>
    <contour>
      <point x="221" y="466" type="line"/>
      <point x="180" y="290" type="line"/>
      <point x="72" y="290" type="line"/>
      <point x="31" y="466" type="line"/>
      <point x="39" y="595" type="line"/>
      <point x="213" y="595" type="line"/>
    </contour>
  </outline>
</glyph>
<glyph name="parenleft" format="1">
  <advance width="428"/>
  <unicode hex="0028"/>
  <outline>
    <contour>
      <point x="391" y="-85" type="line"/>
      <point x="349" y="-152" type="line"/>
      <point x="92" y="-41" type="line"/>
      <point x="44" y="227" type="line"/>
      <point x="92" y="496" type="line"/>
      <point x="349" y="607" type="line"/>
      <point x="391" y="540" type="line"/>
      <point x="284" y="467" type="line"/>
      <point x="245" y="227" type="line"/>
      <point x="284" y="-12" type="line"/>
    </contour>
  </outline>
</glyph>
<glyph name="parenright" format="1">
  <advance width="428"/>
  <unicode hex="0029"/>
  <outline>
    <contour>
      <point x="384" y="227" type="line"/>
      <point x="336" y="-41" type="line"/>
      <point x="79" y="-152" type="line"/>
      <point x="37" y="-85" type="line"/>
      <point x="144" y="-12" type="line"/>
      <point x="183" y="227" type="line"/>
      <point x="144" y="467" type="line"/>
      <point x="37" y="540" type="line"/>
      <point x="79" y="607" type="line"/>
      <point x="336" y="496" type="line"/>
    </contour>
  </outline>
</glyph>
<glyph name="asterisk" format="1">
  <advance width="395"/>
  <unicode hex="002A"/>
  <outline>
    <contour>
      <point x="368" y="425" type="line"/>
      <point x="251" y="421" type="line"/>
      <point x="344" y="346" type="line"/>
      <point x="239" y="267" type="line"/>
      <point x="198" y="383" type="line"/>
      <point x="157" y="267" type="line"/>
      <point x="52" y="346" type="line"/>
      <point x="145" y="421" type="line"/>
      <point x="27" y="425" type="line"/>
      <point x="68" y="554" type="line"/>
      <point x="166" y="486" type="line"/>
      <point x="132" y="603" type="line"/>
      <point x="263" y="603" type="line"/>
      <point x="230" y="486" type="line"/>
      <point x="328" y="554" type="line"/>
    </contour>
  </outline>
</glyph>
<glyph name="plus" format="1">
  <advance width="448"/>
  <unicode hex="002B"/>
  <outline>
    <contour>
      <point x="416" y="165" type="line"/>
      <point x="296" y="157" type="line"/>
      <point x="288" y="37" type="line"/>
      <point x="168" y="37" type="line"/>
      <point x="160" y="157" type="line"/>
      <point x="40" y="165" type="line"/>
      <point x="40" y="289" type="line"/>
      <point x="160" y="297" type="line"/>
      <point x="168" y="417" type="line"/>
      <point x="288" y="417" type="line"/>
      <point x="296" y="297" type="line"/>
      <point x="416" y="289" type="line"/>
    </contour>
  </outline>
</glyph>
<glyph name="comma" format="1">
  <advance width="263"/>
  <unicode hex="002C"/>
  <outline>
    <contour>
      <point x="241" y="51" type="line"/>
      <point x="102" y="-117" type="line"/>
      <point x="21" y="-86" type="line"/>
      <point x="46" y="12" type="line"/>
      <point x="29" y="186" type="line"/>
      <point x="236" y="186" type="line"/>
    </contour>
  </outline>
</glyph>
<glyph name="hyphen" format="1">
  <advance width="343"/>
  <unicode hex="002D"/>
  <unicode hex="2010"/>
  <unicode hex="2011"/>
  <outline>
    <contour>
      <point x="307" y="171" type="line"/>
      <point x="172" y="160" type="line"/>
      <point x="36" y="171" type="line"/>
      <point x="36" y="283" type="line"/>
      <point x="172" y="294" type="line"/>
      <point x="307" y="283" type="line"/>
    </contour>
  </outline>
</glyph>
<glyph name="period" format="1">
  <advance width="263"/>
  <unicode hex="002E"/>
  <outline>
    <contour>
      <point x="237" y="93" type="line"/>
      <point x="231" y="0" type="line"/>
      <point x="31" y="0" type="line"/>
      <point x="26" y="93" type="line"/>
      <point x="31" y="186" type="line"/>
      <point x="231" y="186" type="line"/>
    </contour>
  </outline>
</glyph>
<glyph name="slash" format="1">
  <advance width="437"/>
  <unicode hex="002F"/>
  <outline>
    <contour>
      <point x="397" y="583" type="line"/>
      <point x="280" y="136" type="line"/>
      <point x="116" y="-152" type="line"/>
      <point x="10" y="-128" type="line"/>
      <point x="127" y="319" type="line"/>
      <point x="291" y="607" type="line"/>
    </contour>
  </outline>
</glyph>
<glyph name="zero" format="1">
  <advance width="653"/>
  <unicode hex="0030"/>
  <outline>
    <contour>
      <point x="623" y="297" type="line"/>
      <point x="586" y="46" type="line"/>
      <point x="416" y="-5" type="line"/>
      <point x="237" y="-5" type="line"/>
      <point x="67" y="46" type="line"/>
      <point x="30" y="297" type="line"/>
      <point x="67" y="549" type="line"/>
      <point x="237" y="600" type="line"/>
      <point x="416" y="600" type="line"/>
      <point x="587" y="549" type="line"/>
    </contour>
    <contour>
      <point x="438" y="297" type="line"/>
      <point x="410" y="493" type="line"/>
      <point x="326" y="505" type="line"/>
      <point x="244" y="492" type="line"/>
      <point x="215" y="297" type="line"/>
      <point x="244" y="102" type="line"/>
      <point x="327" y="90" type="line"/>
      <point x="410" y="103" type="line"/>
    </contour>
  </outline>
</glyph>
<glyph name="one" format="1">
  <advance width="347"/>
  <unicode hex="0031"/>
  <outline>
    <contour>
      <point x="309" y="0" type="line"/>
      <point x="116" y="0" type="line"/>
      <point x="126" y="296" type="line"/>
      <point x="118" y="470" type="line"/>
      <point x="14" y="472" type="line"/>
      <point x="-3" y="553" type="line"/>
      <point x="177" y="597" type="line"/>
      <point x="309" y="597" type="line"/>
      <point x="298" y="296" type="line"/>
    </contour>
  </outline>
</glyph>
<glyph name="two" format="1">
  <advance width="574"/>
  <unicode hex="0032"/>
  <outline>
    <contour>
      <point x="549" y="0" type="line"/>
      <point x="56" y="0" type="line"/>
      <point x="31" y="60" type="line"/>
      <point x="319" y="338" type="line"/>
      <point x="338" y="413" type="line"/>
      <point x="319" y="490" type="line"/>
      <point x="261" y="508" type="line"/>
      <point x="89" y="410" type="line"/>
      <point x="28" y="553" type="line"/>
      <point x="205" y="600" type="line"/>
      <point x="343" y="600" type="line"/>
      <point x="503" y="549" type="line"/>
      <point x="522" y="440" type="line"/>
      <point x="501" y="331" type="line"/>
      <point x="235" y="115" type="line"/>
      <point x="523" y="144" type="line"/>
    </contour>
  </outline>
</glyph>
<glyph name="three" format="1">
  <advance width="536"/>
  <unicode hex="0033"/>
  <outline>
    <contour>
      <point x="507" y="187" type="line"/>
      <point x="478" y="58" type="line"/>
      <point x="312" y="-5" type="line"/>
      <point x="181" y="-5" type="line"/>
      <point x="19" y="45" type="line"/>
      <point x="71" y="170" type="line"/>
      <point x="251" y="78" type="line"/>
      <point x="307" y="106" type="line"/>
      <point x="325" y="178" type="line"/>
      <point x="307" y="251" type="line"/>
      <point x="275" y="265" type="line"/>
      <point x="163" y="277" type="line"/>
      <point x="151" y="313" type="line"/>
      <point x="286" y="497" type="line"/>
      <point x="67" y="455" type="line"/>
      <point x="32" y="595" type="line"/>
      <point x="469" y="595" type="line"/>
      <point x="506" y="514" type="line"/>
      <point x="302" y="353" type="line"/>
      <point x="478" y="316" type="line"/>
    </contour>
  </outline>
</glyph>
<glyph name="four" format="1">
  <advance width="605"/>
  <unicode hex="0034"/>
  <outline>
    <contour>
      <point x="592" y="145" type="line"/>
      <point x="493" y="145" type="line"/>
      <point x="499" y="0" type="line"/>
      <point x="324" y="0" type="line"/>
      <point x="329" y="145" type="line"/>
      <point x="55" y="145" type="line"/>
      <point x="16" y="207" type="line"/>
      <point x="203" y="460" type="line"/>
      <point x="257" y="618" type="line"/>
      <point x="429" y="529" type="line"/>
      <point x="185" y="239" type="line"/>
      <point x="329" y="243" type="line"/>
      <point x="324" y="375" type="line"/>
      <point x="499" y="375" type="line"/>
      <point x="493" y="250" type="line"/>
      <point x="575" y="253" type="line"/>
    </contour>
  </outline>
</glyph>
<glyph name="five" format="1">
  <advance width="579"/>
  <unicode hex="0035"/>
  <outline>
    <contour>
      <point x="542" y="197" type="line"/>
      <point x="513" y="58" type="line"/>
      <point x="321" y="-5" type="line"/>
      <point x="190" y="-5" type="line"/>
      <point x="19" y="45" type="line"/>
      <point x="71" y="170" type="line"/>
      <point x="260" y="78" type="line"/>
      <point x="342" y="116" type="line"/>
      <point x="359" y="181" type="line"/>
      <point x="342" y="248" type="line"/>
      <point x="250" y="283" type="line"/>
      <point x="145" y="250" type="line"/>
      <point x="78" y="284" type="line"/>
      <point x="92" y="595" type="line"/>
      <point x="516" y="595" type="line"/>
      <point x="480" y="458" type="line"/>
      <point x="221" y="490" type="line"/>
      <point x="187" y="349" type="line"/>
      <point x="264" y="379" type="line"/>
      <point x="364" y="379" type="line"/>
      <point x="513" y="336" type="line"/>
    </contour>
  </outline>
</glyph>
<glyph name="six" format="1">
  <advance width="591"/>
  <unicode hex="0036"/>
  <outline>
    <contour>
      <point x="556" y="192" type="line"/>
      <point x="535" y="42" type="line"/>
      <point x="388" y="-5" type="line"/>
      <point x="218" y="-5" type="line"/>
      <point x="67" y="46" type="line"/>
      <point x="30" y="298" type="line"/>
      <point x="67" y="549" type="line"/>
      <point x="233" y="600" type="line"/>
      <point x="381" y="600" type="line"/>
      <point x="538" y="556" type="line"/>
      <point x="488" y="428" type="line"/>
      <point x="304" y="509" type="line"/>
      <point x="232" y="493" type="line"/>
      <point x="215" y="352" type="line"/>
      <point x="309" y="380" type="line"/>
      <point x="387" y="380" type="line"/>
      <point x="535" y="336" type="line"/>
    </contour>
    <contour>
      <point x="389" y="192" type="line"/>
      <point x="376" y="276" type="line"/>
      <point x="317" y="287" type="line"/>
      <point x="210" y="264" type="line"/>
      <point x="232" y="108" type="line"/>
      <point x="303" y="88" type="line"/>
      <point x="376" y="108" type="line"/>
    </contour>
  </outline>
</glyph>
<glyph name="seven" format="1">
  <advance width="499"/>
  <unicode hex="0037"/>
  <outline>
    <contour>
      <point x="489" y="506" type="line"/>
      <point x="256" y="-11" type="line"/>
      <point x="98" y="62" type="line"/>
      <point x="224" y="238" type="line"/>
      <point x="341" y="476" type="line"/>
      <point x="53" y="441" type="line"/>
      <point x="13" y="595" type="line"/>
      <point x="454" y="595" type="line"/>
    </contour>
  </outline>
</glyph>
<glyph name="eight" format="1">
  <advance width="603"/>
  <unicode hex="0038"/>
  <outline>
    <contour>
      <point x="570" y="159" type="line"/>
      <point x="554" y="54" type="line"/>
      <point x="391" y="-5" type="line"/>
      <point x="212" y="-5" type="line"/>
      <point x="49" y="54" type="line"/>
      <point x="33" y="159" type="line"/>
      <point x="59" y="259" type="line"/>
      <point x="168" y="297" type="line"/>
      <point x="73" y="336" type="line"/>
      <point x="47" y="435" type="line"/>
      <point x="64" y="541" type="line"/>
      <point x="217" y="600" type="line"/>
      <point x="386" y="600" type="line"/>
      <point x="539" y="541" type="line"/>
      <point x="556" y="435" type="line"/>
      <point x="529" y="336" type="line"/>
      <point x="435" y="297" type="line"/>
      <point x="544" y="259" type="line"/>
    </contour>
    <contour>
      <point x="379" y="430" type="line"/>
      <point x="359" y="501" type="line"/>
      <point x="301" y="510" type="line"/>
      <point x="244" y="501" type="line"/>
      <point x="224" y="430" type="line"/>
      <point x="241" y="359" type="line"/>
      <point x="301" y="334" type="line"/>
      <point x="363" y="359" type="line"/>
    </contour>
    <contour>
      <point x="393" y="164" type="line"/>
      <point x="379" y="236" type="line"/>
      <point x="301" y="261" type="line"/>
      <point x="223" y="236" type="line"/>
      <point x="210" y="164" type="line"/>
      <point x="228" y="96" type="line"/>
      <point x="301" y="85" type="line"/>
      <point x="374" y="96" type="line"/>
    </contour>
  </outline>
</glyph>
<glyph name="nine" format="1">
  <advance width="591"/>
  <unicode hex="0039"/>
  <outline>
    <contour>
      <point x="561" y="297" type="line"/>
      <point x="524" y="46" type="line"/>
      <point x="358" y="-5" type="line"/>
      <point x="210" y="-5" type="line"/>
      <point x="33" y="39" type="line"/>
      <point x="83" y="167" type="line"/>
      <point x="287" y="86" type="line"/>
      <point x="359" y="102" type="line"/>
      <point x="376" y="243" type="line"/>
      <point x="282" y="205" type="line"/>
      <point x="204" y="205" type="line"/>
      <point x="56" y="249" type="line"/>
      <point x="35" y="398" type="line"/>
      <point x="56" y="553" type="line"/>
      <point x="203" y="600" type="line"/>
      <point x="373" y="600" type="line"/>
      <point x="524" y="549" type="line"/>
    </contour>
    <contour>
      <point x="381" y="331" type="line"/>
      <point x="359" y="487" type="line"/>
      <point x="288" y="507" type="line"/>
      <point x="215" y="487" type="line"/>
      <point x="202" y="398" type="line"/>
      <point x="215" y="309" type="line"/>
      <point x="274" y="298" type="line"/>
    </contour>
  </outline>
</glyph>
<glyph name="colon" format="1">
  <advance width="263"/>
  <unicode hex="003A"/>
  <outline>
    <contour>
      <point x="237" y="291" type="line"/>
      <point x="231" y="207" type="line"/>
      <point x="31" y="207" type="line"/>
      <point x="26" y="291" type="line"/>
      <point x="31" y="375" type="line"/>
      <point x="231" y="375" type="line"/>
    </contour>
    <contour>
      <point x="237" y="84" type="line"/>
      <point x="231" y="0" type="line"/>
      <point x="31" y="0" type="line"/>
      <point x="26" y="84" type="line"/>
      <point x="31" y="168" type="line"/>
      <point x="231" y="168" type="line"/>
    </contour>
  </outline>
</glyph>
<glyph name="semicolon" format="1">
  <advance width="263"/>
  <unicode hex="003B"/>
  <outline>
    <contour>
      <point x="237" y="291" type="line"/>
      <point x="231" y="207" type="line"/>
      <point x="31" y="207" type="line"/>
      <point x="26" y="291" type="line"/>
      <point x="31" y="375" type="line"/>
      <point x="231" y="375" type="line"/>
    </contour>
    <contour>
      <point x="239" y="51" type="line"/>
      <point x="100" y="-117" type="line"/>
      <point x="19" y="-86" type="line"/>
      <point x="44" y="12" type="line"/>
      <point x="27" y="168" type="line"/>
      <point x="234" y="168" type="line"/>
    </contour>
  </outline>
</glyph>
<glyph name="less" format="1">
  <advance width="411"/>
  <unicode hex="003C"/>
  <outline>
    <contour>
      <point x="384" y="45" type="line"/>
      <point x="300" y="-21" type="line"/>
      <point x="124" y="128" type="line"/>
      <point x="35" y="174" type="line"/>
      <point x="35" y="282" type="line"/>
      <point x="124" y="328" type="line"/>
      <point x="300" y="477" type="line"/>
      <point x="384" y="411" type="line"/>
      <point x="272" y="228" type="line"/>
    </contour>
  </outline>
</glyph>
<glyph name="equal" format="1">
  <advance width="468"/>
  <unicode hex="003D"/>
  <outline>
    <contour>
      <point x="418" y="266" type="line"/>
      <point x="234" y="254" type="line"/>
      <point x="49" y="266" type="line"/>
      <point x="49" y="370" type="line"/>
      <point x="234" y="382" type="line"/>
      <point x="418" y="370" type="line"/>
    </contour>
    <contour>
      <point x="418" y="84" type="line"/>
      <point x="234" y="72" type="line"/>
      <point x="49" y="84" type="line"/>
      <point x="49" y="188" type="line"/>
      <point x="234" y="200" type="line"/>
      <point x="418" y="188" type="line"/>
    </contour>
  </outline>
</glyph>
<glyph name="greater" format="1">
  <advance width="411"/>
  <unicode hex="003E"/>
  <outline>
    <contour>
      <point x="377" y="174" type="line"/>
      <point x="287" y="128" type="line"/>
      <point x="111" y="-21" type="line"/>
      <point x="27" y="45" type="line"/>
      <point x="139" y="228" type="line"/>
      <point x="27" y="411" type="line"/>
      <point x="111" y="477" type="line"/>
      <point x="287" y="328" type="line"/>
      <point x="377" y="282" type="line"/>
    </contour>
  </outline>
</glyph>
<glyph name="question" format="1">
  <advance width="506"/>
  <unicode hex="003F"/>
  <outline>
    <contour>
      <point x="497" y="415" type="line"/>
      <point x="457" y="307" type="line"/>
      <point x="322" y="267" type="line"/>
      <point x="291" y="192" type="line"/>
      <point x="192" y="192" type="line"/>
      <point x="155" y="281" type="line"/>
      <point x="181" y="329" type="line"/>
      <point x="284" y="365" type="line"/>
      <point x="294" y="443" type="line"/>
      <point x="268" y="518" type="line"/>
      <point x="247" y="518" type="line"/>
      <point x="55" y="420" type="line"/>
      <point x="13" y="576" type="line"/>
      <point x="189" y="600" type="line"/>
      <point x="336" y="600" type="line"/>
      <point x="473" y="549" type="line"/>
    </contour>
    <contour>
      <point x="348" y="81" type="line"/>
      <point x="343" y="0" type="line"/>
      <point x="140" y="0" type="line"/>
      <point x="134" y="81" type="line"/>
      <point x="140" y="163" type="line"/>
      <point x="343" y="163" type="line"/>
    </contour>
  </outline>
</glyph>
<glyph name="at" format="1">
  <advance width="720"/>
  <unicode hex="0040"/>
  <outline>
    <contour>
      <point x="674" y="356" type="line"/>
      <point x="639" y="163" type="line"/>
      <point x="432" y="112" type="line"/>
      <point x="373" y="112" type="line"/>
      <point x="367" y="156" type="line"/>
      <point x="282" y="107" type="line"/>
      <point x="172" y="128" type="line"/>
      <point x="177" y="300" type="line"/>
      <point x="219" y="471" type="line"/>
      <point x="360" y="492" type="line"/>
      <point x="459" y="467" type="line"/>
      <point x="496" y="487" type="line"/>
      <point x="550" y="487" type="line"/>
      <point x="510" y="299" type="line"/>
      <point x="494" y="164" type="line"/>
      <point x="601" y="188" type="line"/>
      <point x="631" y="353" type="line"/>
      <point x="601" y="517" type="line"/>
      <point x="424" y="560" type="line"/>
      <point x="297" y="560" type="line"/>
      <point x="119" y="517" type="line"/>
      <point x="90" y="297" type="line"/>
      <point x="119" y="77" type="line"/>
      <point x="297" y="35" type="line"/>
      <point x="424" y="35" type="line"/>
      <point x="624" y="86" type="line"/>
      <point x="636" y="45" type="line"/>
      <point x="429" y="-5" type="line"/>
      <point x="292" y="-5" type="line"/>
      <point x="82" y="46" type="line"/>
      <point x="47" y="297" type="line"/>
      <point x="82" y="549" type="line"/>
      <point x="292" y="600" type="line"/>
      <point x="429" y="600" type="line"/>
      <point x="639" y="549" type="line"/>
    </contour>
    <contour>
      <point x="404" y="420" type="line"/>
      <point x="338" y="412" type="line"/>
      <point x="308" y="300" type="line"/>
      <point x="301" y="187" type="line"/>
      <point x="370" y="219" type="line"/>
    </contour>
  </outline>
</glyph>
<glyph name="A" format="1">
  <advance width="641"/>
  <unicode hex="0041"/>
  <outline>
    <contour>
      <point x="628" y="52" type="line"/>
      <point x="404" y="-11" type="line"/>
      <point x="378" y="104" type="line"/>
      <point x="169" y="104" type="line"/>
      <point x="138" y="-11" type="line"/>
      <point x="15" y="27" type="line"/>
      <point x="131" y="321" type="line"/>
      <point x="221" y="597" type="line"/>
      <point x="420" y="597" type="line"/>
      <point x="509" y="328" type="line"/>
    </contour>
    <contour>
      <point x="354" y="212" type="line"/>
      <point x="288" y="443" type="line"/>
      <point x="198" y="212" type="line"/>
    </contour>
  </outline>
</glyph>
<glyph name="B" format="1">
  <advance width="604"/>
  <unicode hex="0042"/>
  <outline>
    <contour>
      <point x="582" y="164" type="line"/>
      <point x="562" y="53" type="line"/>
      <point x="408" y="0" type="line"/>
      <point x="46" y="0" type="line"/>
      <point x="54" y="297" type="line"/>
      <point x="46" y="595" type="line"/>
      <point x="395" y="595" type="line"/>
      <point x="549" y="542" type="line"/>
      <point x="568" y="430" type="line"/>
      <point x="533" y="339" type="line"/>
      <point x="416" y="297" type="line"/>
      <point x="547" y="256" type="line"/>
    </contour>
    <contour>
      <point x="364" y="420" type="line"/>
      <point x="353" y="490" type="line"/>
      <point x="316" y="501" type="line"/>
      <point x="247" y="501" type="line"/>
      <point x="241" y="345" type="line"/>
      <point x="316" y="345" type="line"/>
      <point x="353" y="355" type="line"/>
    </contour>
    <contour>
      <point x="377" y="175" type="line"/>
      <point x="366" y="240" type="line"/>
      <point x="329" y="250" type="line"/>
      <point x="241" y="250" type="line"/>
      <point x="247" y="94" type="line"/>
      <point x="329" y="94" type="line"/>
      <point x="366" y="105" type="line"/>
    </contour>
  </outline>
</glyph>
<glyph name="C" format="1">
  <advance width="573"/>
  <unicode hex="0043"/>
  <outline>
    <contour>
      <point x="542" y="570" type="line"/>
      <point x="500" y="411" type="line"/>
      <point x="336" y="501" type="line"/>
      <point x="250" y="492" type="line"/>
      <point x="226" y="297" type="line"/>
      <point x="250" y="103" type="line"/>
      <point x="335" y="95" type="line"/>
      <point x="506" y="169" type="line"/>
      <point x="536" y="42" type="line"/>
      <point x="376" y="-5" type="line"/>
      <point x="256" y="-5" type="line"/>
      <point x="60" y="46" type="line"/>
      <point x="30" y="297" type="line"/>
      <point x="60" y="549" type="line"/>
      <point x="256" y="600" type="line"/>
      <point x="382" y="600" type="line"/>
    </contour>
  </outline>
</glyph>
<glyph name="D" format="1">
  <advance width="646"/>
  <unicode hex="0044"/>
  <outline>
    <contour>
      <point x="618" y="297" type="line"/>
      <point x="586" y="51" type="line"/>
      <point x="387" y="0" type="line"/>
      <point x="41" y="0" type="line"/>
      <point x="49" y="297" type="line"/>
      <point x="41" y="595" type="line"/>
      <point x="387" y="595" type="line"/>
      <point x="586" y="544" type="line"/>
    </contour>
    <contour>
      <point x="420" y="297" type="line"/>
      <point x="395" y="488" type="line"/>
      <point x="317" y="500" type="line"/>
      <point x="247" y="500" type="line"/>
      <point x="241" y="297" type="line"/>
      <point x="247" y="95" type="line"/>
      <point x="317" y="95" type="line"/>
      <point x="395" y="107" type="line"/>
    </contour>
  </outline>
</glyph>
<glyph name="E" format="1">
  <advance width="524"/>
  <unicode hex="0045"/>
  <outline>
    <contour>
      <point x="508" y="0" type="line"/>
      <point x="46" y="0" type="line"/>
      <point x="54" y="297" type="line"/>
      <point x="46" y="595" type="line"/>
      <point x="506" y="595" type="line"/>
      <point x="474" y="456" type="line"/>
      <point x="251" y="504" type="line"/>
      <point x="248" y="351" type="line"/>
      <point x="428" y="371" type="line"/>
      <point x="428" y="234" type="line"/>
      <point x="248" y="255" type="line"/>
      <point x="251" y="91" type="line"/>
      <point x="478" y="139" type="line"/>
    </contour>
  </outline>
</glyph>
<glyph name="F" format="1">
  <advance width="492"/>
  <unicode hex="0046"/>
  <outline>
    <contour>
      <point x="475" y="595" type="line"/>
      <point x="442" y="456" type="line"/>
      <point x="251" y="502" type="line"/>
      <point x="248" y="333" type="line"/>
      <point x="397" y="351" type="line"/>
      <point x="397" y="214" type="line"/>
      <point x="248" y="233" type="line"/>
      <point x="252" y="0" type="line"/>
      <point x="46" y="0" type="line"/>
      <point x="54" y="297" type="line"/>
      <point x="46" y="595" type="line"/>
    </contour>
  </outline>
</glyph>
<glyph name="G" format="1">
  <advance width="616"/>
  <unicode hex="0047"/>
  <outline>
    <contour>
      <point x="582" y="38" type="line"/>
      <point x="388" y="-5" type="line"/>
      <point x="249" y="-5" type="line"/>
      <point x="60" y="46" type="line"/>
      <point x="30" y="297" type="line"/>
      <point x="60" y="549" type="line"/>
      <point x="249" y="600" type="line"/>
      <point x="383" y="600" type="line"/>
      <point x="558" y="568" type="line"/>
      <point x="506" y="389" type="line"/>
      <point x="330" y="501" type="line"/>
      <point x="250" y="492" type="line"/>
      <point x="226" y="297" type="line"/>
      <point x="250" y="103" type="line"/>
      <point x="329" y="95" type="line"/>
      <point x="380" y="104" type="line"/>
      <point x="382" y="189" type="line"/>
      <point x="374" y="314" type="line"/>
      <point x="582" y="314" type="line"/>
      <point x="577" y="176" type="line"/>
    </contour>
  </outline>
</glyph>
<glyph name="H" format="1">
  <advance width="662"/>
  <unicode hex="0048"/>
  <outline>
    <contour>
      <point x="626" y="0" type="line"/>
      <point x="418" y="0" type="line"/>
      <point x="424" y="232" type="line"/>
      <point x="247" y="232" type="line"/>
      <point x="254" y="0" type="line"/>
      <point x="46" y="0" type="line"/>
      <point x="54" y="297" type="line"/>
      <point x="46" y="595" type="line"/>
      <point x="254" y="595" type="line"/>
      <point x="247" y="340" type="line"/>
      <point x="424" y="340" type="line"/>
      <point x="418" y="595" type="line"/>
      <point x="626" y="595" type="line"/>
      <point x="618" y="297" type="line"/>
    </contour>
  </outline>
</glyph>
<glyph name="J" format="1">
  <advance width="316"/>
  <unicode hex="004A"/>
  <outline>
    <contour>
      <point x="262" y="595" type="line"/>
      <point x="254" y="279" type="line"/>
      <point x="261" y="-104" type="line"/>
      <point x="52" y="-140" type="line"/>
      <point x="-66" y="-132" type="line"/>
      <point x="-66" y="-28" type="line"/>
      <point x="54" y="-37" type="line"/>
      <point x="62" y="279" type="line"/>
      <point x="54" y="595" type="line"/>
    </contour>
  </outline>
</glyph>
<glyph name="K" format="1">
  <advance width="613"/>
  <unicode hex="004B"/>
  <outline>
    <contour>
      <point x="608" y="93" type="line"/>
      <point x="432" y="-23" type="line"/>
      <point x="253" y="232" type="line"/>
      <point x="248" y="227" type="line"/>
      <point x="254" y="0" type="line"/>
      <point x="46" y="0" type="line"/>
      <point x="54" y="297" type="line"/>
      <point x="46" y="595" type="line"/>
      <point x="254" y="595" type="line"/>
      <point x="246" y="334" type="line"/>
      <point x="354" y="458" type="line"/>
      <point x="459" y="618" type="line"/>
      <point x="576" y="520" type="line"/>
      <point x="396" y="364" type="line"/>
    </contour>
  </outline>
</glyph>
<glyph name="L" format="1">
  <advance width="492"/>
  <unicode hex="004C"/>
  <outline>
    <contour>
      <point x="475" y="0" type="line"/>
      <point x="46" y="0" type="line"/>
      <point x="54" y="297" type="line"/>
      <point x="46" y="595" type="line"/>
      <point x="250" y="595" type="line"/>
      <point x="246" y="297" type="line"/>
      <point x="250" y="91" type="line"/>
      <point x="442" y="139" type="line"/>
    </contour>
  </outline>
</glyph>
<glyph name="M" format="1">
  <advance width="818"/>
  <unicode hex="004D"/>
  <outline>
    <contour>
      <point x="772" y="0" type="line"/>
      <point x="563" y="0" type="line"/>
      <point x="573" y="312" type="line"/>
      <point x="437" y="0" type="line"/>
      <point x="309" y="0" type="line"/>
      <point x="156" y="312" type="line"/>
      <point x="177" y="0" type="line"/>
      <point x="46" y="0" type="line"/>
      <point x="54" y="297" type="line"/>
      <point x="46" y="595" type="line"/>
      <point x="259" y="595" type="line"/>
      <point x="328" y="414" type="line"/>
      <point x="415" y="225" type="line"/>
      <point x="495" y="420" type="line"/>
      <point x="553" y="595" type="line"/>
      <point x="772" y="595" type="line"/>
      <point x="764" y="297" type="line"/>
    </contour>
  </outline>
</glyph>
<glyph name="N" format="1">
  <advance width="636"/>
  <unicode hex="004E"/>
  <outline>
    <contour>
      <point x="585" y="0" type="line"/>
      <point x="484" y="0" type="line"/>
      <point x="168" y="309" type="line"/>
      <point x="190" y="0" type="line"/>
      <point x="46" y="0" type="line"/>
      <point x="54" y="297" type="line"/>
      <point x="46" y="595" type="line"/>
      <point x="179" y="595" type="line"/>
      <point x="464" y="311" type="line"/>
      <point x="441" y="595" type="line"/>
      <point x="585" y="595" type="line"/>
      <point x="576" y="297" type="line"/>
    </contour>
  </outline>
</glyph>
<glyph name="O" format="1">
  <advance width="658"/>
  <unicode hex="004F"/>
  <outline>
    <contour>
      <point x="629" y="298" type="line"/>
      <point x="598" y="46" type="line"/>
      <point x="406" y="-5" type="line"/>
      <point x="252" y="-5" type="line"/>
      <point x="61" y="46" type="line"/>
      <point x="30" y="298" type="line"/>
      <point x="61" y="549" type="line"/>
      <point x="253" y="600" type="line"/>
      <point x="407" y="600" type="line"/>
      <point x="598" y="549" type="line"/>
    </contour>
    <contour>
      <point x="433" y="298" type="line"/>
      <point x="409" y="492" type="line"/>
      <point x="331" y="505" type="line"/>
      <point x="250" y="492" type="line"/>
      <point x="226" y="298" type="line"/>
      <point x="250" y="103" type="line"/>
      <point x="328" y="90" type="line"/>
      <point x="409" y="103" type="line"/>
    </contour>
  </outline>
</glyph>
<glyph name="P" format="1">
  <advance width="586"/>
  <unicode hex="0050"/>
  <outline>
    <contour>
      <point x="573" y="393" type="line"/>
      <point x="553" y="247" type="line"/>
      <point x="405" y="192" type="line"/>
      <point x="249" y="192" type="line"/>
      <point x="255" y="0" type="line"/>
      <point x="46" y="0" type="line"/>
      <point x="54" y="297" type="line"/>
      <point x="46" y="595" type="line"/>
      <point x="405" y="595" type="line"/>
      <point x="553" y="540" type="line"/>
    </contour>
    <contour>
      <point x="372" y="393" type="line"/>
      <point x="358" y="491" type="line"/>
      <point x="321" y="502" type="line"/>
      <point x="252" y="502" type="line"/>
      <point x="246" y="285" type="line"/>
      <point x="321" y="285" type="line"/>
      <point x="358" y="295" type="line"/>
    </contour>
  </outline>
</glyph>
<glyph name="Q" format="1">
  <advance width="658"/>
  <unicode hex="0051"/>
  <outline>
    <contour>
      <point x="629" y="297" type="line"/>
      <point x="598" y="46" type="line"/>
      <point x="438" y="4" type="line"/>
      <point x="467" y="-49" type="line"/>
      <point x="607" y="-49" type="line"/>
      <point x="621" y="-123" type="line"/>
      <point x="405" y="-154" type="line"/>
      <point x="280" y="-92" type="line"/>
      <point x="234" y="1" type="line"/>
      <point x="60" y="46" type="line"/>
      <point x="30" y="297" type="line"/>
      <point x="60" y="549" type="line"/>
      <point x="252" y="600" type="line"/>
      <point x="406" y="600" type="line"/>
      <point x="598" y="549" type="line"/>
    </contour>
    <contour>
      <point x="432" y="297" type="line"/>
      <point x="407" y="492" type="line"/>
      <point x="330" y="505" type="line"/>
      <point x="250" y="492" type="line"/>
      <point x="226" y="297" type="line"/>
      <point x="250" y="103" type="line"/>
      <point x="328" y="90" type="line"/>
      <point x="407" y="103" type="line"/>
    </contour>
  </outline>
</glyph>
<glyph name="R" format="1">
  <advance width="620"/>
  <unicode hex="0052"/>
  <outline>
    <contour>
      <point x="625" y="93" type="line"/>
      <point x="461" y="-14" type="line"/>
      <point x="250" y="229" type="line"/>
      <point x="249" y="229" type="line"/>
      <point x="255" y="0" type="line"/>
      <point x="46" y="0" type="line"/>
      <point x="54" y="297" type="line"/>
      <point x="46" y="595" type="line"/>
      <point x="405" y="595" type="line"/>
      <point x="553" y="536" type="line"/>
      <point x="573" y="407" type="line"/>
      <point x="553" y="279" type="line"/>
      <point x="443" y="241" type="line"/>
    </contour>
    <contour>
      <point x="372" y="403" type="line"/>
      <point x="358" y="491" type="line"/>
      <point x="321" y="502" type="line"/>
      <point x="252" y="502" type="line"/>
      <point x="246" y="305" type="line"/>
      <point x="321" y="305" type="line"/>
      <point x="358" y="315" type="line"/>
    </contour>
  </outline>
</glyph>
<glyph name="S" format="1">
  <advance width="535"/>
  <unicode hex="0053"/>
  <outline>
    <contour>
      <point x="505" y="582" type="line"/>
      <point x="460" y="432" type="line"/>
      <point x="282" y="506" type="line"/>
      <point x="216" y="488" type="line"/>
      <point x="216" y="451" type="line"/>
      <point x="495" y="267" type="line"/>
      <point x="495" y="43" type="line"/>
      <point x="339" y="-5" type="line"/>
      <point x="200" y="-5" type="line"/>
      <point x="27" y="29" type="line"/>
      <point x="69" y="173" type="line"/>
      <point x="259" y="89" type="line"/>
      <point x="330" y="109" type="line"/>
      <point x="330" y="141" type="line"/>
      <point x="51" y="325" type="line"/>
      <point x="51" y="552" type="line"/>
      <point x="205" y="600" type="line"/>
      <point x="334" y="600" type="line"/>
    </contour>
  </outline>
</glyph>
<glyph name="T" format="1">
  <advance width="593"/>
  <unicode hex="0054"/>
  <outline>
    <contour>
      <point x="579" y="595" type="line"/>
      <point x="548" y="456" type="line"/>
      <point x="399" y="493" type="line"/>
      <point x="392" y="297" type="line"/>
      <point x="401" y="0" type="line"/>
      <point x="192" y="0" type="line"/>
      <point x="200" y="297" type="line"/>
      <point x="194" y="493" type="line"/>
      <point x="46" y="456" type="line"/>
      <point x="15" y="595" type="line"/>
    </contour>
  </outline>
</glyph>
<glyph name="U" format="1">
  <advance width="646"/>
  <unicode hex="0055"/>
  <outline>
    <contour>
      <point x="599" y="45" type="line"/>
      <point x="409" y="-5" type="line"/>
      <point x="237" y="-5" type="line"/>
      <point x="48" y="45" type="line"/>
      <point x="54" y="297" type="line"/>
      <point x="48" y="595" type="line"/>
      <point x="254" y="595" type="line"/>
      <point x="246" y="297" type="line"/>
      <point x="245" y="103" type="line"/>
      <point x="323" y="90" type="line"/>
      <point x="401" y="103" type="line"/>
      <point x="399" y="297" type="line"/>
      <point x="392" y="595" type="line"/>
      <point x="599" y="595" type="line"/>
      <point x="593" y="297" type="line"/>
    </contour>
  </outline>
</glyph>
<glyph name="V" format="1">
  <advance width="641"/>
  <unicode hex="0056"/>
  <outline>
    <contour>
      <point x="628" y="568" type="line"/>
      <point x="512" y="274" type="line"/>
      <point x="422" y="-2" type="line"/>
      <point x="223" y="-2" type="line"/>
      <point x="134" y="267" type="line"/>
      <point x="15" y="543" type="line"/>
      <point x="239" y="606" type="line"/>
      <point x="291" y="378" type="line"/>
      <point x="352" y="164" type="line"/>
      <point x="435" y="377" type="line"/>
      <point x="497" y="606" type="line"/>
    </contour>
  </outline>
</glyph>
<glyph name="W" format="1">
  <advance width="922"/>
  <unicode hex="0057"/>
  <outline>
    <contour>
      <point x="908" y="568" type="line"/>
      <point x="800" y="274" type="line"/>
      <point x="719" y="-2" type="line"/>
      <point x="520" y="-2" type="line"/>
      <point x="461" y="195" type="line"/>
      <point x="406" y="-2" type="line"/>
      <point x="208" y="-2" type="line"/>
      <point x="126" y="267" type="line"/>
      <point x="15" y="543" type="line"/>
      <point x="239" y="606" type="line"/>
      <point x="284" y="378" type="line"/>
      <point x="343" y="164" type="line"/>
      <point x="404" y="355" type="line"/>
      <point x="331" y="543" type="line"/>
      <point x="562" y="606" type="line"/>
      <point x="603" y="378" type="line"/>
      <point x="655" y="164" type="line"/>
      <point x="723" y="377" type="line"/>
      <point x="777" y="606" type="line"/>
    </contour>
  </outline>
</glyph>
<glyph name="X" format="1">
  <advance width="637"/>
  <unicode hex="0058"/>
  <outline>
    <contour>
      <point x="611" y="107" type="line"/>
      <point x="433" y="-16" type="line"/>
      <point x="298" y="193" type="line"/>
      <point x="137" y="-15" type="line"/>
      <point x="26" y="60" type="line"/>
      <point x="232" y="281" type="line"/>
      <point x="45" y="493" type="line"/>
      <point x="224" y="611" type="line"/>
      <point x="341" y="426" type="line"/>
      <point x="479" y="611" type="line"/>
      <point x="591" y="535" type="line"/>
      <point x="406" y="336" type="line"/>
    </contour>
  </outline>
</glyph>
<glyph name="Y" format="1">
  <advance width="646"/>
  <unicode hex="0059"/>
  <outline>
    <contour>
      <point x="633" y="540" type="line"/>
      <point x="424" y="204" type="line"/>
      <point x="433" y="0" type="line"/>
      <point x="223" y="0" type="line"/>
      <point x="229" y="192" type="line"/>
      <point x="13" y="506" type="line"/>
      <point x="188" y="606" type="line"/>
      <point x="264" y="479" type="line"/>
      <point x="369" y="321" type="line"/>
      <point x="461" y="492" type="line"/>
      <point x="513" y="606" type="line"/>
    </contour>
  </outline>
</glyph>
<glyph name="Z" format="1">
  <advance width="579"/>
  <unicode hex="005A"/>
  <outline>
    <contour>
      <point x="541" y="0" type="line"/>
      <point x="50" y="0" type="line"/>
      <point x="26" y="86" type="line"/>
      <point x="315" y="505" type="line"/>
      <point x="81" y="456" type="line"/>
      <point x="50" y="595" type="line"/>
      <point x="517" y="595" type="line"/>
      <point x="541" y="504" type="line"/>
      <point x="246" y="89" type="line"/>
      <point x="512" y="139" type="line"/>
    </contour>
  </outline>
</glyph>
<glyph name="bracketleft" format="1">
  <advance width="481"/>
  <unicode hex="005B"/>
  <outline>
    <contour>
      <point x="451" y="-140" type="line"/>
      <point x="60" y="-140" type="line"/>
      <point x="70" y="227" type="line"/>
      <point x="60" y="595" type="line"/>
      <point x="444" y="595" type="line"/>
      <point x="416" y="480" type="line"/>
      <point x="249" y="506" type="line"/>
      <point x="243" y="227" type="line"/>
      <point x="249" y="-51" type="line"/>
      <point x="424" y="-25" type="line"/>
    </contour>
  </outline>
</glyph>
<glyph name="backslash" format="1">
  <advance width="437"/>
  <unicode hex="005C"/>
  <outline>
    <contour>
      <point x="427" y="-128" type="line"/>
      <point x="321" y="-152" type="line"/>
      <point x="157" y="136" type="line"/>
      <point x="40" y="583" type="line"/>
      <point x="146" y="607" type="line"/>
      <point x="310" y="319" type="line"/>
    </contour>
  </outline>
</glyph>
<glyph name="bracketright" format="1">
  <advance width="481"/>
  <unicode hex="005D"/>
  <outline>
    <contour>
      <point x="421" y="-140" type="line"/>
      <point x="30" y="-140" type="line"/>
      <point x="57" y="-25" type="line"/>
      <point x="232" y="-51" type="line"/>
      <point x="238" y="227" type="line"/>
      <point x="232" y="506" type="line"/>
      <point x="65" y="480" type="line"/>
      <point x="37" y="595" type="line"/>
      <point x="421" y="595" type="line"/>
      <point x="411" y="227" type="line"/>
    </contour>
  </outline>
</glyph>
<glyph name="asciicircum" format="1">
  <advance width="520"/>
  <unicode hex="005E"/>
  <outline>
    <contour>
      <point x="478" y="416" type="line"/>
      <point x="429" y="336" type="line"/>
      <point x="260" y="405" type="line"/>
      <point x="91" y="336" type="line"/>
      <point x="42" y="416" type="line"/>
      <point x="118" y="485" type="line"/>
      <point x="194" y="595" type="line"/>
      <point x="326" y="595" type="line"/>
      <point x="402" y="485" type="line"/>
    </contour>
  </outline>
</glyph>
<glyph name="underscore" format="1">
  <advance width="473"/>
  <unicode hex="005F"/>
  <outline>
    <contour>
      <point x="473" y="-156" type="line"/>
      <point x="0" y="-156" type="line"/>
      <point x="0" y="-41" type="line"/>
      <point x="473" y="-41" type="line"/>
    </contour>
  </outline>
</glyph>
<glyph name="grave" format="1">
  <advance width="438"/>
  <unicode hex="0060"/>
  <outline>
    <contour>
      <point x="346" y="454" type="line"/>
      <point x="321" y="398" type="line"/>
      <point x="126" y="440" type="line"/>
      <point x="86" y="488" type="line"/>
      <point x="203" y="589" type="line"/>
      <point x="267" y="509" type="line"/>
    </contour>
  </outline>
</glyph>
<glyph name="a" format="1">
  <advance width="464"/>
  <unicode hex="0061"/>
  <outline>
    <contour>
      <point x="436" y="358" type="line"/>
      <point x="430" y="189" type="line"/>
      <point x="435" y="0" type="line"/>
      <point x="240" y="0" type="line"/>
      <point x="241" y="32" type="line"/>
      <point x="182" y="-7" type="line"/>
      <point x="36" y="23" type="line"/>
      <point x="21" y="121" type="line"/>
      <point x="36" y="219" type="line"/>
      <point x="177" y="250" type="line"/>
      <point x="251" y="224" type="line"/>
      <point x="253" y="295" type="line"/>
      <point x="212" y="309" type="line"/>
      <point x="193" y="309" type="line"/>
      <point x="53" y="275" type="line"/>
      <point x="40" y="370" type="line"/>
      <point x="193" y="383" type="line"/>
      <point x="267" y="383" type="line"/>
    </contour>
    <contour>
      <point x="248" y="163" type="line"/>
      <point x="224" y="170" type="line"/>
      <point x="199" y="167" type="line"/>
      <point x="191" y="126" type="line"/>
      <point x="199" y="84" type="line"/>
      <point x="218" y="82" type="line"/>
      <point x="244" y="93" type="line"/>
    </contour>
  </outline>
</glyph>
<glyph name="c" format="1">
  <advance width="384"/>
  <unicode hex="0063"/>
  <outline>
    <contour>
      <point x="359" y="369" type="line"/>
      <point x="344" y="271" type="line"/>
      <point x="240" y="307" type="line"/>
      <point x="211" y="302" type="line"/>
      <point x="201" y="188" type="line"/>
      <point x="211" y="73" type="line"/>
      <point x="240" y="68" type="line"/>
      <point x="340" y="95" type="line"/>
      <point x="358" y="11" type="line"/>
      <point x="279" y="-5" type="line"/>
      <point x="196" y="-5" type="line"/>
      <point x="38" y="20" type="line"/>
      <point x="23" y="188" type="line"/>
      <point x="38" y="355" type="line"/>
      <point x="196" y="380" type="line"/>
      <point x="279" y="380" type="line"/>
    </contour>
  </outline>
</glyph>
<glyph name="d" format="1">
  <advance width="482"/>
  <unicode hex="0064"/>
  <outline>
    <contour>
      <point x="453" y="0" type="line"/>
      <point x="264" y="0" type="line"/>
      <point x="265" y="31" type="line"/>
      <point x="199" y="-5" type="line"/>
      <point x="38" y="19" type="line"/>
      <point x="23" y="188" type="line"/>
      <point x="38" y="356" type="line"/>
      <point x="200" y="380" type="line"/>
      <point x="269" y="347" type="line"/>
      <point x="258" y="750" type="line"/>
      <point x="453" y="750" type="line"/>
      <point x="442" y="302" type="line"/>
    </contour>
    <contour>
      <point x="270" y="283" type="line"/>
      <point x="250" y="293" type="line"/>
      <point x="212" y="286" type="line"/>
      <point x="201" y="189" type="line"/>
      <point x="212" y="89" type="line"/>
      <point x="250" y="82" type="line"/>
      <point x="266" y="91" type="line"/>
    </contour>
  </outline>
</glyph>
<glyph name="e" format="1">
  <advance width="425"/>
  <unicode hex="0065"/>
  <outline>
    <contour>
      <point x="404" y="195" type="line"/>
      <point x="194" y="146" type="line"/>
      <point x="202" y="73" type="line"/>
      <point x="236" y="69" type="line"/>
      <point x="376" y="104" type="line"/>
      <point x="394" y="15" type="line"/>
      <point x="275" y="-5" type="line"/>
      <point x="196" y="-5" type="line"/>
      <point x="38" y="20" type="line"/>
      <point x="23" y="188" type="line"/>
      <point x="38" y="355" type="line"/>
      <point x="197" y="380" type="line"/>
      <point x="259" y="380" type="line"/>
      <point x="390" y="356" type="line"/>
    </contour>
    <contour>
      <point x="244" y="215" type="line"/>
      <point x="236" y="310" type="line"/>
      <point x="217" y="314" type="line"/>
      <point x="199" y="310" type="line"/>
      <point x="193" y="204" type="line"/>
    </contour>
  </outline>
</glyph>
<glyph name="f" format="1">
  <advance width="306"/>
  <unicode hex="0066"/>
  <outline>
    <contour>
      <point x="323" y="649" type="line"/>
      <point x="236" y="667" type="line"/>
      <point x="226" y="380" type="line"/>
      <point x="298" y="374" type="line"/>
      <point x="298" y="300" type="line"/>
      <point x="226" y="293" type="line"/>
      <point x="237" y="0" type="line"/>
      <point x="47" y="0" type="line"/>
      <point x="58" y="294" type="line"/>
      <point x="22" y="300" type="line"/>
      <point x="22" y="374" type="line"/>
      <point x="57" y="380" type="line"/>
      <point x="47" y="730" type="line"/>
      <point x="238" y="750" type="line"/>
      <point x="323" y="744" type="line"/>
    </contour>
  </outline>
</glyph>
<glyph name="g" format="1">
  <advance width="446"/>
  <unicode hex="0067"/>
  <outline>
    <contour>
      <point x="450" y="438" type="line"/>
      <point x="376" y="357" type="line"/>
      <point x="405" y="351" type="line"/>
      <point x="420" y="232" type="line"/>
      <point x="405" y="114" type="line"/>
      <point x="257" y="84" type="line"/>
      <point x="208" y="84" type="line"/>
      <point x="193" y="65" type="line"/>
      <point x="413" y="26" type="line"/>
      <point x="425" y="-41" type="line"/>
      <point x="414" y="-114" type="line"/>
      <point x="278" y="-140" type="line"/>
      <point x="138" y="-140" type="line"/>
      <point x="17" y="-124" type="line"/>
      <point x="45" y="-29" type="line"/>
      <point x="159" y="-72" type="line"/>
      <point x="234" y="-72" type="line"/>
      <point x="240" y="-47" type="line"/>
      <point x="233" y="-25" type="line"/>
      <point x="90" y="1" type="line"/>
      <point x="90" y="65" type="line"/>
      <point x="110" y="99" type="line"/>
      <point x="37" y="114" type="line"/>
      <point x="22" y="232" type="line"/>
      <point x="37" y="351" type="line"/>
      <point x="185" y="380" type="line"/>
      <point x="257" y="380" type="line"/>
      <point x="272" y="377" type="line"/>
      <point x="340" y="497" type="line"/>
    </contour>
    <contour>
      <point x="254" y="232" type="line"/>
      <point x="244" y="309" type="line"/>
      <point x="222" y="313" type="line"/>
      <point x="197" y="309" type="line"/>
      <point x="188" y="232" type="line"/>
      <point x="198" y="158" type="line"/>
      <point x="222" y="154" type="line"/>
      <point x="245" y="158" type="line"/>
    </contour>
  </outline>
</glyph>
<glyph name="h" format="1">
  <advance width="484"/>
  <unicode hex="0068"/>
  <outline>
    <contour>
      <point x="458" y="0" type="line"/>
      <point x="265" y="0" type="line"/>
      <point x="274" y="188" type="line"/>
      <point x="268" y="290" type="line"/>
      <point x="231" y="293" type="line"/>
      <point x="209" y="283" type="line"/>
      <point x="220" y="0" type="line"/>
      <point x="26" y="0" type="line"/>
      <point x="37" y="302" type="line"/>
      <point x="26" y="750" type="line"/>
      <point x="222" y="750" type="line"/>
      <point x="210" y="347" type="line"/>
      <point x="281" y="380" type="line"/>
      <point x="457" y="361" type="line"/>
      <point x="449" y="185" type="line"/>
    </contour>
  </outline>
</glyph>
<glyph name="j" format="1">
  <advance width="257"/>
  <unicode hex="006A"/>
  <outline>
    <contour>
      <point x="225" y="573" type="line"/>
      <point x="220" y="499" type="line"/>
      <point x="36" y="499" type="line"/>
      <point x="32" y="573" type="line"/>
      <point x="36" y="647" type="line"/>
      <point x="220" y="647" type="line"/>
    </contour>
    <contour>
      <point x="225" y="-119" type="line"/>
      <point x="26" y="-139" type="line"/>
      <point x="-69" y="-131" type="line"/>
      <point x="-69" y="-37" type="line"/>
      <point x="36" y="-56" type="line"/>
      <point x="44" y="149" type="line"/>
      <point x="32" y="375" type="line"/>
      <point x="225" y="375" type="line"/>
      <point x="213" y="149" type="line"/>
    </contour>
  </outline>
</glyph>
<glyph name="k" format="1">
  <advance width="463"/>
  <unicode hex="006B"/>
  <outline>
    <contour>
      <point x="469" y="78" type="line"/>
      <point x="312" y="-13" type="line"/>
      <point x="224" y="112" type="line"/>
      <point x="215" y="103" type="line"/>
      <point x="219" y="0" type="line"/>
      <point x="28" y="0" type="line"/>
      <point x="40" y="302" type="line"/>
      <point x="28" y="750" type="line"/>
      <point x="226" y="750" type="line"/>
      <point x="210" y="302" type="line"/>
      <point x="212" y="200" type="line"/>
      <point x="278" y="283" type="line"/>
      <point x="341" y="389" type="line"/>
      <point x="438" y="337" type="line"/>
      <point x="340" y="234" type="line"/>
    </contour>
  </outline>
</glyph>
<glyph name="l" format="1">
  <advance width="260"/>
  <unicode hex="006C"/>
  <outline>
    <contour>
      <point x="228" y="0" type="line"/>
      <point x="32" y="0" type="line"/>
      <point x="44" y="302" type="line"/>
      <point x="32" y="750" type="line"/>
      <point x="228" y="750" type="line"/>
      <point x="216" y="302" type="line"/>
    </contour>
  </outline>
</glyph>
<glyph name="m" format="1">
  <advance width="725"/>
  <unicode hex="006D"/>
  <outline>
    <contour>
      <point x="699" y="0" type="line"/>
      <point x="506" y="0" type="line"/>
      <point x="515" y="188" type="line"/>
      <point x="510" y="290" type="line"/>
      <point x="472" y="293" type="line"/>
      <point x="456" y="283" type="line"/>
      <point x="451" y="188" type="line"/>
      <point x="460" y="0" type="line"/>
      <point x="267" y="0" type="line"/>
      <point x="276" y="188" type="line"/>
      <point x="270" y="290" type="line"/>
      <point x="233" y="293" type="line"/>
      <point x="216" y="283" type="line"/>
      <point x="212" y="188" type="line"/>
      <point x="220" y="0" type="line"/>
      <point x="28" y="0" type="line"/>
      <point x="36" y="188" type="line"/>
      <point x="28" y="375" type="line"/>
      <point x="220" y="375" type="line"/>
      <point x="219" y="345" type="line"/>
      <point x="283" y="380" type="line"/>
      <point x="439" y="372" type="line"/>
      <point x="459" y="345" type="line"/>
      <point x="522" y="380" type="line"/>
      <point x="698" y="361" type="line"/>
      <point x="691" y="188" type="line"/>
    </contour>
  </outline>
</glyph>
<glyph name="n" format="1">
  <advance width="486"/>
  <unicode hex="006E"/>
  <outline>
    <contour>
      <point x="460" y="0" type="line"/>
      <point x="267" y="0" type="line"/>
      <point x="276" y="188" type="line"/>
      <point x="270" y="290" type="line"/>
      <point x="233" y="293" type="line"/>
      <point x="216" y="283" type="line"/>
      <point x="212" y="188" type="line"/>
      <point x="220" y="0" type="line"/>
      <point x="28" y="0" type="line"/>
      <point x="36" y="188" type="line"/>
      <point x="28" y="375" type="line"/>
      <point x="220" y="375" type="line"/>
      <point x="219" y="345" type="line"/>
      <point x="283" y="380" type="line"/>
      <point x="459" y="361" type="line"/>
      <point x="451" y="188" type="line"/>
    </contour>
  </outline>
</glyph>
<glyph name="o" format="1">
  <advance width="468"/>
  <unicode hex="006F"/>
  <outline>
    <contour>
      <point x="445" y="187" type="line"/>
      <point x="430" y="20" type="line"/>
      <point x="272" y="-5" type="line"/>
      <point x="196" y="-5" type="line"/>
      <point x="38" y="20" type="line"/>
      <point x="23" y="187" type="line"/>
      <point x="38" y="355" type="line"/>
      <point x="196" y="380" type="line"/>
      <point x="272" y="380" type="line"/>
      <point x="430" y="355" type="line"/>
    </contour>
    <contour>
      <point x="267" y="187" type="line"/>
      <point x="257" y="302" type="line"/>
      <point x="234" y="306" type="line"/>
      <point x="211" y="302" type="line"/>
      <point x="201" y="187" type="line"/>
      <point x="211" y="73" type="line"/>
      <point x="234" y="69" type="line"/>
      <point x="257" y="73" type="line"/>
    </contour>
  </outline>
</glyph>
<glyph name="p" format="1">
  <advance width="482"/>
  <unicode hex="0070"/>
  <outline>
    <contour>
      <point x="459" y="188" type="line"/>
      <point x="443" y="19" type="line"/>
      <point x="283" y="-5" type="line"/>
      <point x="217" y="30" type="line"/>
      <point x="226" y="-140" type="line"/>
      <point x="28" y="-140" type="line"/>
      <point x="33" y="116" type="line"/>
      <point x="28" y="375" type="line"/>
      <point x="219" y="375" type="line"/>
      <point x="218" y="346" type="line"/>
      <point x="282" y="380" type="line"/>
      <point x="443" y="356" type="line"/>
    </contour>
    <contour>
      <point x="281" y="188" type="line"/>
      <point x="269" y="286" type="line"/>
      <point x="232" y="293" type="line"/>
      <point x="214" y="284" type="line"/>
      <point x="212" y="116" type="line"/>
      <point x="215" y="90" type="line"/>
      <point x="232" y="82" type="line"/>
      <point x="269" y="89" type="line"/>
    </contour>
  </outline>
</glyph>
<glyph name="r" format="1">
  <advance width="364"/>
  <unicode hex="0072"/>
  <outline>
    <contour>
      <point x="358" y="376" type="line"/>
      <point x="338" y="240" type="line"/>
      <point x="216" y="272" type="line"/>
      <point x="212" y="188" type="line"/>
      <point x="220" y="0" type="line"/>
      <point x="28" y="0" type="line"/>
      <point x="36" y="188" type="line"/>
      <point x="28" y="375" type="line"/>
      <point x="220" y="375" type="line"/>
      <point x="219" y="345" type="line"/>
      <point x="292" y="380" type="line"/>
    </contour>
  </outline>
</glyph>
<glyph name="s" format="1">
  <advance width="389"/>
  <unicode hex="0073"/>
  <outline>
    <contour>
      <point x="362" y="26" type="line"/>
      <point x="222" y="-5" type="line"/>
      <point x="144" y="-5" type="line"/>
      <point x="17" y="17" type="line"/>
      <point x="40" y="101" type="line"/>
      <point x="134" y="71" type="line"/>
      <point x="181" y="77" type="line"/>
      <point x="181" y="109" type="line"/>
      <point x="30" y="208" type="line"/>
      <point x="30" y="349" type="line"/>
      <point x="160" y="380" type="line"/>
      <point x="234" y="380" type="line"/>
      <point x="361" y="369" type="line"/>
      <point x="346" y="268" type="line"/>
      <point x="245" y="304" type="line"/>
      <point x="206" y="298" type="line"/>
      <point x="206" y="267" type="line"/>
      <point x="362" y="168" type="line"/>
    </contour>
  </outline>
</glyph>
<glyph name="t" format="1">
  <advance width="341"/>
  <unicode hex="0074"/>
  <outline>
    <contour>
      <point x="321" y="2" type="line"/>
      <point x="240" y="-5" type="line"/>
      <point x="47" y="15" type="line"/>
      <point x="55" y="294" type="line"/>
      <point x="20" y="300" type="line"/>
      <point x="20" y="374" type="line"/>
      <point x="56" y="380" type="line"/>
      <point x="49" y="550" type="line"/>
      <point x="230" y="550" type="line"/>
      <point x="225" y="381" type="line"/>
      <point x="305" y="374" type="line"/>
      <point x="305" y="300" type="line"/>
      <point x="224" y="294" type="line"/>
      <point x="232" y="78" type="line"/>
      <point x="321" y="98" type="line"/>
    </contour>
  </outline>
</glyph>
<glyph name="u" format="1">
  <advance width="486"/>
  <unicode hex="0075"/>
  <outline>
    <contour>
      <point x="458" y="0" type="line"/>
      <point x="265" y="0" type="line"/>
      <point x="266" y="30" type="line"/>
      <point x="203" y="-5" type="line"/>
      <point x="27" y="14" type="line"/>
      <point x="34" y="187" type="line"/>
      <point x="26" y="375" type="line"/>
      <point x="218" y="375" type="line"/>
      <point x="210" y="187" type="line"/>
      <point x="215" y="85" type="line"/>
      <point x="253" y="82" type="line"/>
      <point x="269" y="92" type="line"/>
      <point x="274" y="187" type="line"/>
      <point x="265" y="375" type="line"/>
      <point x="458" y="375" type="line"/>
      <point x="449" y="187" type="line"/>
    </contour>
  </outline>
</glyph>
<glyph name="v" format="1">
  <advance width="461"/>
  <unicode hex="0076"/>
  <outline>
    <contour>
      <point x="458" y="354" type="line"/>
      <point x="385" y="183" type="line"/>
      <point x="320" y="0" type="line"/>
      <point x="154" y="0" type="line"/>
      <point x="86" y="161" type="line"/>
      <point x="3" y="335" type="line"/>
      <point x="203" y="388" type="line"/>
      <point x="229" y="270" type="line"/>
      <point x="267" y="130" type="line"/>
      <point x="315" y="268" type="line"/>
      <point x="347" y="388" type="line"/>
    </contour>
  </outline>
</glyph>
<glyph name="w" format="1">
  <advance width="720"/>
  <unicode hex="0077"/>
  <outline>
    <contour>
      <point x="717" y="354" type="line"/>
      <point x="644" y="183" type="line"/>
      <point x="579" y="0" type="line"/>
      <point x="413" y="0" type="line"/>
      <point x="364" y="125" type="line"/>
      <point x="320" y="0" type="line"/>
      <point x="154" y="0" type="line"/>
      <point x="86" y="161" type="line"/>
      <point x="3" y="335" type="line"/>
      <point x="203" y="388" type="line"/>
      <point x="229" y="270" type="line"/>
      <point x="267" y="130" type="line"/>
      <point x="310" y="252" type="line"/>
      <point x="272" y="335" type="line"/>
      <point x="472" y="388" type="line"/>
      <point x="493" y="270" type="line"/>
      <point x="526" y="130" type="line"/>
      <point x="574" y="268" type="line"/>
      <point x="606" y="388" type="line"/>
    </contour>
  </outline>
</glyph>
<glyph name="x" format="1">
  <advance width="458"/>
  <unicode hex="0078"/>
  <outline>
    <contour>
      <point x="449" y="57" type="line"/>
      <point x="278" y="-21" type="line"/>
      <point x="193" y="95" type="line"/>
      <point x="90" y="-18" type="line"/>
      <point x="10" y="49" type="line"/>
      <point x="145" y="162" type="line"/>
      <point x="12" y="318" type="line"/>
      <point x="184" y="396" type="line"/>
      <point x="261" y="285" type="line"/>
      <point x="360" y="393" type="line"/>
      <point x="442" y="326" type="line"/>
      <point x="312" y="216" type="line"/>
    </contour>
  </outline>
</glyph>
<glyph name="y" format="1">
  <advance width="486"/>
  <unicode hex="0079"/>
  <outline>
    <contour>
      <point x="459" y="-84" type="line"/>
      <point x="294" y="-140" type="line"/>
      <point x="168" y="-140" type="line"/>
      <point x="19" y="-121" type="line"/>
      <point x="45" y="-27" type="line"/>
      <point x="203" y="-72" type="line"/>
      <point x="266" y="-72" type="line"/>
      <point x="269" y="31" type="line"/>
      <point x="204" y="-5" type="line"/>
      <point x="27" y="14" type="line"/>
      <point x="34" y="189" type="line"/>
      <point x="26" y="375" type="line"/>
      <point x="218" y="375" type="line"/>
      <point x="210" y="188" type="line"/>
      <point x="215" y="85" type="line"/>
      <point x="253" y="82" type="line"/>
      <point x="269" y="92" type="line"/>
      <point x="274" y="188" type="line"/>
      <point x="265" y="375" type="line"/>
      <point x="459" y="375" type="line"/>
      <point x="450" y="77" type="line"/>
    </contour>
  </outline>
</glyph>
<glyph name="z" format="1">
  <advance width="409"/>
  <unicode hex="007A"/>
  <outline>
    <contour>
      <point x="392" y="306" type="line"/>
      <point x="206" y="68" type="line"/>
      <point x="371" y="99" type="line"/>
      <point x="390" y="0" type="line"/>
      <point x="32" y="0" type="line"/>
      <point x="14" y="69" type="line"/>
      <point x="200" y="307" type="line"/>
      <point x="44" y="277" type="line"/>
      <point x="25" y="375" type="line"/>
      <point x="374" y="375" type="line"/>
    </contour>
  </outline>
</glyph>
<glyph name="braceleft" format="1">
  <advance width="512"/>
  <unicode hex="007B"/>
  <outline>
    <contour>
      <point x="481" y="-75" type="line"/>
      <point x="442" y="-152" type="line"/>
      <point x="158" y="-41" type="line"/>
      <point x="188" y="107" type="line"/>
      <point x="132" y="168" type="line"/>
      <point x="28" y="189" type="line"/>
      <point x="28" y="265" type="line"/>
      <point x="132" y="286" type="line"/>
      <point x="188" y="347" type="line"/>
      <point x="158" y="496" type="line"/>
      <point x="442" y="607" type="line"/>
      <point x="481" y="530" type="line"/>
      <point x="346" y="470" type="line"/>
      <point x="385" y="309" type="line"/>
      <point x="256" y="227" type="line"/>
      <point x="385" y="145" type="line"/>
      <point x="346" y="-15" type="line"/>
    </contour>
  </outline>
</glyph>
<glyph name="bar" format="1">
  <advance width="307"/>
  <unicode hex="007C"/>
  <outline>
    <contour>
      <point x="253" y="227" type="line"/>
      <point x="221" y="-140" type="line"/>
      <point x="86" y="-140" type="line"/>
      <point x="54" y="227" type="line"/>
      <point x="86" y="595" type="line"/>
      <point x="221" y="595" type="line"/>
    </contour>
  </outline>
</glyph>
<glyph name="braceright" format="1">
  <advance width="512"/>
  <unicode hex="007D"/>
  <outline>
    <contour>
      <point x="484" y="189" type="line"/>
      <point x="380" y="168" type="line"/>
      <point x="324" y="107" type="line"/>
      <point x="354" y="-41" type="line"/>
      <point x="70" y="-152" type="line"/>
      <point x="31" y="-75" type="line"/>
      <point x="166" y="-15" type="line"/>
      <point x="127" y="145" type="line"/>
      <point x="256" y="227" type="line"/>
      <point x="127" y="309" type="line"/>
      <point x="166" y="470" type="line"/>
      <point x="31" y="530" type="line"/>
      <point x="70" y="607" type="line"/>
      <point x="354" y="496" type="line"/>
      <point x="324" y="347" type="line"/>
      <point x="380" y="286" type="line"/>
      <point x="484" y="265" type="line"/>
    </contour>
  </outline>
</glyph>
<glyph name="asciitilde" format="1">
  <advance width="520"/>
  <unicode hex="007E"/>
  <outline>
    <contour>
      <point x="514" y="286" type="line"/>
      <point x="435" y="196" type="line"/>
      <point x="383" y="117" type="line"/>
      <point x="250" y="117" type="line"/>
      <point x="175" y="185" type="line"/>
      <point x="78" y="105" type="line"/>
      <point x="6" y="168" type="line"/>
      <point x="85" y="258" type="line"/>
      <point x="137" y="337" type="line"/>
      <point x="270" y="337" type="line"/>
      <point x="345" y="269" type="line"/>
      <point x="442" y="349" type="line"/>
    </contour>
  </outline>
</glyph>
<glyph name="cent" format="1">
  <advance width="528"/>
  <unicode hex="00A2"/>
  <outline>
    <contour>
      <point x="496" y="500" type="line"/>
      <point x="452" y="351" type="line"/>
      <point x="299" y="431" type="line"/>
      <point x="234" y="417" type="line"/>
      <point x="217" y="297" type="line"/>
      <point x="234" y="178" type="line"/>
      <point x="298" y="165" type="line"/>
      <point x="460" y="214" type="line"/>
      <point x="490" y="112" type="line"/>
      <point x="362" y="71" type="line"/>
      <point x="378" y="-10" type="line"/>
      <point x="176" y="-10" type="line"/>
      <point x="191" y="71" type="line"/>
      <point x="57" y="116" type="line"/>
      <point x="38" y="297" type="line"/>
      <point x="57" y="479" type="line"/>
      <point x="191" y="524" type="line"/>
      <point x="176" y="605" type="line"/>
      <point x="378" y="605" type="line"/>
      <point x="362" y="528" type="line"/>
    </contour>
  </outline>
</glyph>
<glyph name="sterling" format="1">
  <advance width="595"/>
  <unicode hex="00A3"/>
  <outline>
    <contour>
      <point x="566" y="0" type="line"/>
      <point x="43" y="0" type="line"/>
      <point x="43" y="94" type="line"/>
      <point x="118" y="95" type="line"/>
      <point x="138" y="171" type="line"/>
      <point x="123" y="244" type="line"/>
      <point x="40" y="249" type="line"/>
      <point x="40" y="339" type="line"/>
      <point x="103" y="343" type="line"/>
      <point x="95" y="389" type="line"/>
      <point x="95" y="559" type="line"/>
      <point x="242" y="600" type="line"/>
      <point x="401" y="600" type="line"/>
      <point x="560" y="570" type="line"/>
      <point x="516" y="421" type="line"/>
      <point x="318" y="512" type="line"/>
      <point x="276" y="500" type="line"/>
      <point x="276" y="400" type="line"/>
      <point x="289" y="354" type="line"/>
      <point x="473" y="339" type="line"/>
      <point x="473" y="249" type="line"/>
      <point x="317" y="238" type="line"/>
      <point x="324" y="212" type="line"/>
      <point x="292" y="99" type="line"/>
      <point x="535" y="151" type="line"/>
    </contour>
  </outline>
</glyph>
<glyph name="yen" format="1">
  <advance width="646"/>
  <unicode hex="00A5"/>
  <outline>
    <contour>
      <point x="633" y="540" type="line"/>
      <point x="479" y="293" type="line"/>
      <point x="571" y="289" type="line"/>
      <point x="571" y="212" type="line"/>
      <point x="424" y="205" type="line"/>
      <point x="414" y="189" type="line"/>
      <point x="415" y="166" type="line"/>
      <point x="571" y="159" type="line"/>
      <point x="571" y="82" type="line"/>
      <point x="419" y="75" type="line"/>
      <point x="423" y="0" type="line"/>
      <point x="233" y="0" type="line"/>
      <point x="236" y="75" type="line"/>
      <point x="85" y="82" type="line"/>
      <point x="85" y="159" type="line"/>
      <point x="239" y="166" type="line"/>
      <point x="239" y="177" type="line"/>
      <point x="219" y="206" type="line"/>
      <point x="85" y="212" type="line"/>
      <point x="85" y="289" type="line"/>
      <point x="160" y="292" type="line"/>
      <point x="13" y="506" type="line"/>
      <point x="188" y="606" type="line"/>
      <point x="264" y="479" type="line"/>
      <point x="369" y="321" type="line"/>
      <point x="461" y="492" type="line"/>
      <point x="513" y="606" type="line"/>
    </contour>
  </outline>
</glyph>
<glyph name="section" format="1">
  <advance width="576"/>
  <unicode hex="00A7"/>
  <outline>
    <contour>
      <point x="543" y="582" type="line"/>
      <point x="511" y="442" type="line"/>
      <point x="284" y="508" type="line"/>
      <point x="227" y="498" type="line"/>
      <point x="227" y="473" type="line"/>
      <point x="528" y="383" type="line"/>
      <point x="528" y="279" type="line"/>
      <point x="473" y="206" type="line"/>
      <point x="518" y="191" type="line"/>
      <point x="518" y="43" type="line"/>
      <point x="370" y="-5" type="line"/>
      <point x="220" y="-5" type="line"/>
      <point x="33" y="13" type="line"/>
      <point x="65" y="153" type="line"/>
      <point x="292" y="87" type="line"/>
      <point x="349" y="97" type="line"/>
      <point x="349" y="122" type="line"/>
      <point x="48" y="212" type="line"/>
      <point x="48" y="316" type="line"/>
      <point x="102" y="389" type="line"/>
      <point x="58" y="404" type="line"/>
      <point x="58" y="552" type="line"/>
      <point x="206" y="600" type="line"/>
      <point x="356" y="600" type="line"/>
    </contour>
    <contour>
      <point x="390" y="294" type="line"/>
      <point x="206" y="355" type="line"/>
      <point x="186" y="301" type="line"/>
      <point x="369" y="240" type="line"/>
    </contour>
  </outline>
</glyph>
<glyph name="dieresis" format="1">
  <advance width="438"/>
  <unicode hex="00A8"/>
  <outline>
    <contour>
      <point x="382" y="482" type="line"/>
      <point x="377" y="409" type="line"/>
      <point x="239" y="409" type="line"/>
      <point x="234" y="482" type="line"/>
      <point x="239" y="555" type="line"/>
      <point x="377" y="555" type="line"/>
    </contour>
    <contour>
      <point x="204" y="482" type="line"/>
      <point x="199" y="409" type="line"/>
      <point x="61" y="409" type="line"/>
      <point x="56" y="482" type="line"/>
      <point x="61" y="555" type="line"/>
      <point x="199" y="555" type="line"/>
    </contour>
  </outline>
</glyph>
<glyph name="copyright" format="1">
  <advance width="701"/>
  <unicode hex="00A9"/>
  <outline>
    <contour>
      <point x="655" y="297" type="line"/>
      <point x="621" y="46" type="line"/>
      <point x="417" y="-5" type="line"/>
      <point x="284" y="-5" type="line"/>
      <point x="81" y="46" type="line"/>
      <point x="47" y="297" type="line"/>
      <point x="81" y="549" type="line"/>
      <point x="284" y="600" type="line"/>
      <point x="417" y="600" type="line"/>
      <point x="621" y="549" type="line"/>
    </contour>
    <contour>
      <point x="612" y="297" type="line"/>
      <point x="583" y="516" type="line"/>
      <point x="412" y="559" type="line"/>
      <point x="290" y="559" type="line"/>
      <point x="117" y="516" type="line"/>
      <point x="89" y="297" type="line"/>
      <point x="117" y="78" type="line"/>
      <point x="290" y="36" type="line"/>
      <point x="412" y="36" type="line"/>
      <point x="583" y="78" type="line"/>
    </contour>
    <contour>
      <point x="505" y="474" type="line"/>
      <point x="475" y="358" type="line"/>
      <point x="371" y="430" type="line"/>
      <point x="316" y="424" type="line"/>
      <point x="300" y="297" type="line"/>
      <point x="316" y="171" type="line"/>
      <point x="371" y="166" type="line"/>
      <point x="478" y="214" type="line"/>
      <point x="501" y="131" type="line"/>
      <point x="397" y="101" type="line"/>
      <point x="320" y="101" type="line"/>
      <point x="192" y="134" type="line"/>
      <point x="173" y="297" type="line"/>
      <point x="192" y="461" type="line"/>
      <point x="320" y="494" type="line"/>
      <point x="401" y="494" type="line"/>
    </contour>
  </outline>
</glyph>
<glyph name="ordfeminine" format="1">
  <advance width="474"/>
  <unicode hex="00AA"/>
  <outline>
    <contour>
      <point x="431" y="576" type="line"/>
      <point x="425" y="418" type="line"/>
      <point x="430" y="238" type="line"/>
      <point x="259" y="238" type="line"/>
      <point x="260" y="269" type="line"/>
      <point x="189" y="232" type="line"/>
      <point x="51" y="260" type="line"/>
      <point x="36" y="353" type="line"/>
      <point x="51" y="446" type="line"/>
      <point x="185" y="476" type="line"/>
      <point x="270" y="451" type="line"/>
      <point x="272" y="516" type="line"/>
      <point x="218" y="530" type="line"/>
      <point x="200" y="530" type="line"/>
      <point x="67" y="497" type="line"/>
      <point x="54" y="588" type="line"/>
      <point x="200" y="600" type="line"/>
      <point x="270" y="600" type="line"/>
    </contour>
    <contour>
      <point x="429" y="137" type="line"/>
      <point x="239" y="125" type="line"/>
      <point x="49" y="137" type="line"/>
      <point x="49" y="197" type="line"/>
      <point x="239" y="209" type="line"/>
      <point x="429" y="197" type="line"/>
    </contour>
    <contour>
      <point x="267" y="393" type="line"/>
      <point x="229" y="405" type="line"/>
      <point x="190" y="397" type="line"/>
      <point x="183" y="358" type="line"/>
      <point x="190" y="318" type="line"/>
      <point x="223" y="311" type="line"/>
      <point x="263" y="327" type="line"/>
    </contour>
  </outline>
</glyph>
<glyph name="guillemotleft" format="1">
  <advance width="584"/>
  <unicode hex="00AB"/>
  <outline>
    <contour>
      <point x="562" y="52" type="line"/>
      <point x="485" y="-3" type="line"/>
      <point x="356" y="100" type="line"/>
      <point x="286" y="138" type="line"/>
      <point x="286" y="242" type="line"/>
      <point x="356" y="280" type="line"/>
      <point x="485" y="383" type="line"/>
      <point x="562" y="328" type="line"/>
      <point x="489" y="190" type="line"/>
    </contour>
    <contour>
      <point x="299" y="52" type="line"/>
      <point x="221" y="-3" type="line"/>
      <point x="92" y="100" type="line"/>
      <point x="22" y="138" type="line"/>
      <point x="22" y="242" type="line"/>
      <point x="92" y="280" type="line"/>
      <point x="221" y="383" type="line"/>
      <point x="299" y="328" type="line"/>
      <point x="226" y="190" type="line"/>
    </contour>
  </outline>
</glyph>
<glyph name="degree" format="1">
  <advance width="481"/>
  <unicode hex="00B0"/>
  <outline>
    <contour>
      <point x="448" y="419" type="line"/>
      <point x="428" y="268" type="line"/>
      <point x="296" y="237" type="line"/>
      <point x="185" y="237" type="line"/>
      <point x="53" y="267" type="line"/>
      <point x="33" y="418" type="line"/>
      <point x="53" y="569" type="line"/>
      <point x="185" y="600" type="line"/>
      <point x="296" y="600" type="line"/>
      <point x="428" y="570" type="line"/>
    </contour>
    <contour>
      <point x="297" y="418" type="line"/>
      <point x="284" y="520" type="line"/>
      <point x="241" y="527" type="line"/>
      <point x="198" y="520" type="line"/>
      <point x="184" y="419" type="line"/>
      <point x="198" y="317" type="line"/>
      <point x="240" y="310" type="line"/>
      <point x="284" y="317" type="line"/>
    </contour>
  </outline>
</glyph>
<glyph name="acute" format="1">
  <advance width="438"/>
  <unicode hex="00B4"/>
  <outline>
    <contour>
      <point x="352" y="488" type="line"/>
      <point x="312" y="440" type="line"/>
      <point x="117" y="398" type="line"/>
      <point x="92" y="454" type="line"/>
      <point x="171" y="509" type="line"/>
      <point x="235" y="589" type="line"/>
    </contour>
  </outline>
</glyph>
<glyph name="paragraph" format="1">
  <advance width="566"/>
  <unicode hex="00B6"/>
  <outline>
    <contour>
      <point x="520" y="0" type="line"/>
      <point x="373" y="0" type="line"/>
      <point x="382" y="299" type="line"/>
      <point x="376" y="512" type="line"/>
      <point x="323" y="512" type="line"/>
      <point x="316" y="358" type="line"/>
      <point x="323" y="225" type="line"/>
      <point x="203" y="168" type="line"/>
      <point x="43" y="223" type="line"/>
      <point x="18" y="381" type="line"/>
      <point x="43" y="540" type="line"/>
      <point x="191" y="595" type="line"/>
      <point x="520" y="595" type="line"/>
      <point x="512" y="297" type="line"/>
    </contour>
  </outline>
</glyph>
<glyph name="periodcentered" format="1">
  <advance width="263"/>
  <unicode hex="00B7"/>
  <outline>
    <contour>
      <point x="237" y="227" type="line"/>
      <point x="231" y="134" type="line"/>
      <point x="31" y="134" type="line"/>
      <point x="26" y="227" type="line"/>
      <point x="31" y="320" type="line"/>
      <point x="231" y="320" type="line"/>
    </contour>
  </outline>
</glyph>
<glyph name="cedilla" format="1">
  <advance width="438"/>
  <unicode hex="00B8"/>
  <outline>
    <contour>
      <point x="334" y="-53" type="line"/>
      <point x="295" y="-104" type="line"/>
      <point x="120" y="-141" type="line"/>
      <point x="92" y="-88" type="line"/>
      <point x="173" y="-28" type="line"/>
      <point x="233" y="52" type="line"/>
    </contour>
  </outline>
</glyph>
<glyph name="ordmasculine" format="1">
  <advance width="491"/>
  <unicode hex="00BA"/>
  <outline>
    <contour>
      <point x="453" y="419" type="line"/>
      <point x="433" y="268" type="line"/>
      <point x="301" y="237" type="line"/>
      <point x="190" y="237" type="line"/>
      <point x="58" y="267" type="line"/>
      <point x="38" y="418" type="line"/>
      <point x="58" y="569" type="line"/>
      <point x="190" y="600" type="line"/>
      <point x="301" y="600" type="line"/>
      <point x="433" y="570" type="line"/>
    </contour>
    <contour>
      <point x="441" y="137" type="line"/>
      <point x="245" y="125" type="line"/>
      <point x="50" y="137" type="line"/>
      <point x="50" y="197" type="line"/>
      <point x="245" y="209" type="line"/>
      <point x="441" y="197" type="line"/>
    </contour>
    <contour>
      <point x="302" y="418" type="line"/>
      <point x="289" y="520" type="line"/>
      <point x="246" y="527" type="line"/>
      <point x="203" y="520" type="line"/>
      <point x="189" y="419" type="line"/>
      <point x="203" y="317" type="line"/>
      <point x="245" y="310" type="line"/>
      <point x="289" y="317" type="line"/>
    </contour>
  </outline>
</glyph>
<glyph name="guillemotright" format="1">
  <advance width="584"/>
  <unicode hex="00BB"/>
  <outline>
    <contour>
      <point x="562" y="138" type="line"/>
      <point x="492" y="100" type="line"/>
      <point x="363" y="-3" type="line"/>
      <point x="285" y="52" type="line"/>
      <point x="358" y="190" type="line"/>
      <point x="285" y="328" type="line"/>
      <point x="363" y="383" type="line"/>
      <point x="492" y="280" type="line"/>
      <point x="562" y="242" type="line"/>
    </contour>
    <contour>
      <point x="298" y="138" type="line"/>
      <point x="228" y="100" type="line"/>
      <point x="99" y="-3" type="line"/>
      <point x="22" y="52" type="line"/>
      <point x="95" y="190" type="line"/>
      <point x="22" y="328" type="line"/>
      <point x="99" y="383" type="line"/>
      <point x="228" y="280" type="line"/>
      <point x="298" y="242" type="line"/>
    </contour>
  </outline>
</glyph>
<glyph name="Aring" format="1">
  <advance width="641"/>
  <unicode hex="00C5"/>
  <outline>
    <contour>
      <point x="456" y="717" type="line"/>
      <point x="441" y="634" type="line"/>
      <point x="354" y="614" type="line"/>
      <point x="284" y="614" type="line"/>
      <point x="197" y="633" type="line"/>
      <point x="182" y="716" type="line"/>
      <point x="197" y="799" type="line"/>
      <point x="284" y="818" type="line"/>
      <point x="354" y="818" type="line"/>
      <point x="441" y="799" type="line"/>
    </contour>
    <contour>
      <point x="628" y="52" type="line"/>
      <point x="404" y="-11" type="line"/>
      <point x="378" y="104" type="line"/>
      <point x="169" y="104" type="line"/>
      <point x="138" y="-11" type="line"/>
      <point x="15" y="27" type="line"/>
      <point x="131" y="321" type="line"/>
      <point x="221" y="597" type="line"/>
      <point x="420" y="597" type="line"/>
      <point x="509" y="328" type="line"/>
    </contour>
    <contour>
      <point x="351" y="716" type="line"/>
      <point x="343" y="763" type="line"/>
      <point x="319" y="766" type="line"/>
      <point x="295" y="763" type="line"/>
      <point x="287" y="717" type="line"/>
      <point x="295" y="670" type="line"/>
      <point x="319" y="668" type="line"/>
      <point x="343" y="670" type="line"/>
    </contour>
    <contour>
      <point x="354" y="212" type="line"/>
      <point x="288" y="443" type="line"/>
      <point x="198" y="212" type="line"/>
    </contour>
  </outline>
</glyph>
<glyph name="AE" format="1">
  <advance width="836"/>
  <unicode hex="00C6"/>
  <outline>
    <contour>
      <point x="820" y="0" type="line"/>
      <point x="358" y="0" type="line"/>
      <point x="360" y="104" type="line"/>
      <point x="174" y="104" type="line"/>
      <point x="125" y="-11" type="line"/>
      <point x="15" y="45" type="line"/>
      <point x="153" y="321" type="line"/>
      <point x="278" y="595" type="line"/>
      <point x="818" y="595" type="line"/>
      <point x="786" y="456" type="line"/>
      <point x="563" y="504" type="line"/>
      <point x="560" y="351" type="line"/>
      <point x="740" y="371" type="line"/>
      <point x="740" y="234" type="line"/>
      <point x="560" y="255" type="line"/>
      <point x="563" y="91" type="line"/>
      <point x="790" y="139" type="line"/>
    </contour>
    <contour>
      <point x="366" y="297" type="line"/>
      <point x="361" y="491" type="line"/>
      <point x="221" y="212" type="line"/>
      <point x="363" y="212" type="line"/>
    </contour>
  </outline>
</glyph>
<glyph name="Ccedilla" format="1">
  <advance width="573"/>
  <unicode hex="00C7"/>
  <outline>
    <contour>
      <point x="542" y="570" type="line"/>
      <point x="500" y="411" type="line"/>
      <point x="336" y="501" type="line"/>
      <point x="250" y="492" type="line"/>
      <point x="226" y="297" type="line"/>
      <point x="250" y="103" type="line"/>
      <point x="335" y="95" type="line"/>
      <point x="506" y="169" type="line"/>
      <point x="536" y="42" type="line"/>
      <point x="376" y="-5" type="line"/>
      <point x="366" y="-5" type="line"/>
      <point x="412" y="-53" type="line"/>
      <point x="373" y="-104" type="line"/>
      <point x="198" y="-141" type="line"/>
      <point x="170" y="-88" type="line"/>
      <point x="251" y="-28" type="line"/>
      <point x="268" y="-5" type="line"/>
      <point x="256" y="-5" type="line"/>
      <point x="60" y="46" type="line"/>
      <point x="30" y="297" type="line"/>
      <point x="60" y="549" type="line"/>
      <point x="256" y="600" type="line"/>
      <point x="382" y="600" type="line"/>
    </contour>
  </outline>
</glyph>
<glyph name="Eth" format="1">
  <advance width="676"/>
  <unicode hex="00D0"/>
  <outline>
    <contour>
      <point x="648" y="297" type="line"/>
      <point x="616" y="51" type="line"/>
      <point x="417" y="0" type="line"/>
      <point x="71" y="0" type="line"/>
      <point x="78" y="253" type="line"/>
      <point x="22" y="256" type="line"/>
      <point x="22" y="338" type="line"/>
      <point x="78" y="342" type="line"/>
      <point x="71" y="595" type="line"/>
      <point x="417" y="595" type="line"/>
      <point x="616" y="544" type="line"/>
    </contour>
    <contour>
      <point x="450" y="297" type="line"/>
      <point x="425" y="488" type="line"/>
      <point x="347" y="500" type="line"/>
      <point x="270" y="500" type="line"/>
      <point x="266" y="345" type="line"/>
      <point x="363" y="338" type="line"/>
      <point x="363" y="256" type="line"/>
      <point x="266" y="250" type="line"/>
      <point x="270" y="95" type="line"/>
      <point x="347" y="95" type="line"/>
      <point x="425" y="107" type="line"/>
    </contour>
  </outline>
</glyph>
<glyph name="Oslash" format="1">
  <advance width="658"/>
  <unicode hex="00D8"/>
  <outline>
    <contour>
      <point x="629" y="298" type="line"/>
      <point x="598" y="46" type="line"/>
      <point x="406" y="-5" type="line"/>
      <point x="252" y="-5" type="line"/>
      <point x="245" y="-3" type="line"/>
      <point x="200" y="-94" type="line"/>
      <point x="133" y="-72" type="line"/>
      <point x="167" y="18" type="line"/>
      <point x="61" y="46" type="line"/>
      <point x="30" y="298" type="line"/>
      <point x="61" y="549" type="line"/>
      <point x="253" y="600" type="line"/>
      <point x="407" y="600" type="line"/>
      <point x="414" y="598" type="line"/>
      <point x="459" y="689" type="line"/>
      <point x="526" y="667" type="line"/>
      <point x="493" y="577" type="line"/>
      <point x="598" y="549" type="line"/>
    </contour>
    <contour>
      <point x="366" y="500" type="line"/>
      <point x="331" y="505" type="line"/>
      <point x="235" y="492" type="line"/>
      <point x="207" y="298" type="line"/>
      <point x="225" y="175" type="line"/>
      <point x="280" y="324" type="line"/>
    </contour>
    <contour>
      <point x="452" y="298" type="line"/>
      <point x="434" y="419" type="line"/>
      <point x="380" y="272" type="line"/>
      <point x="293" y="95" type="line"/>
      <point x="328" y="90" type="line"/>
      <point x="424" y="103" type="line"/>
    </contour>
  </outline>
</glyph>
<glyph name="Thorn" format="1">
  <advance width="586"/>
  <unicode hex="00DE"/>
  <outline>
    <contour>
      <point x="573" y="299" type="line"/>
      <point x="553" y="153" type="line"/>
      <point x="405" y="98" type="line"/>
      <point x="251" y="98" type="line"/>
      <point x="254" y="0" type="line"/>
      <point x="46" y="0" type="line"/>
      <point x="54" y="297" type="line"/>
      <point x="46" y="595" type="line"/>
      <point x="254" y="595" type="line"/>
      <point x="251" y="501" type="line"/>
      <point x="405" y="501" type="line"/>
      <point x="553" y="446" type="line"/>
    </contour>
    <contour>
      <point x="372" y="299" type="line"/>
      <point x="358" y="397" type="line"/>
      <point x="321" y="408" type="line"/>
      <point x="248" y="408" type="line"/>
      <point x="246" y="297" type="line"/>
      <point x="248" y="191" type="line"/>
      <point x="321" y="191" type="line"/>
      <point x="358" y="201" type="line"/>
    </contour>
  </outline>
</glyph>
<glyph name="germandbls" format="1">
  <advance width="642"/>
  <unicode hex="00DF"/>
  <outline>
    <contour>
      <point x="620" y="26" type="line"/>
      <point x="480" y="-5" type="line"/>
      <point x="402" y="-5" type="line"/>
      <point x="275" y="17" type="line"/>
      <point x="298" y="101" type="line"/>
      <point x="392" y="71" type="line"/>
      <point x="439" y="77" type="line"/>
      <point x="439" y="109" type="line"/>
      <point x="307" y="204" type="line"/>
      <point x="284" y="255" type="line"/>
      <point x="323" y="607" type="line"/>
      <point x="308" y="673" type="line"/>
      <point x="272" y="679" type="line"/>
      <point x="236" y="673" type="line"/>
      <point x="224" y="332" type="line"/>
      <point x="237" y="0" type="line"/>
      <point x="47" y="0" type="line"/>
      <point x="58" y="294" type="line"/>
      <point x="22" y="300" type="line"/>
      <point x="22" y="374" type="line"/>
      <point x="57" y="380" type="line"/>
      <point x="47" y="730" type="line"/>
      <point x="234" y="750" type="line"/>
      <point x="319" y="750" type="line"/>
      <point x="464" y="726" type="line"/>
      <point x="500" y="602" type="line"/>
      <point x="402" y="318" type="line"/>
      <point x="620" y="168" type="line"/>
    </contour>
  </outline>
</glyph>
<glyph name="ae" format="1">
  <advance width="653"/>
  <unicode hex="00E6"/>
  <outline>
    <contour>
      <point x="632" y="195" type="line"/>
      <point x="422" y="146" type="line"/>
      <point x="430" y="73" type="line"/>
      <point x="464" y="69" type="line"/>
      <point x="604" y="104" type="line"/>
      <point x="622" y="15" type="line"/>
      <point x="503" y="-5" type="line"/>
      <point x="424" y="-5" type="line"/>
      <point x="266" y="20" type="line"/>
      <point x="264" y="47" type="line"/>
      <point x="182" y="-7" type="line"/>
      <point x="36" y="23" type="line"/>
      <point x="21" y="121" type="line"/>
      <point x="36" y="219" type="line"/>
      <point x="177" y="250" type="line"/>
      <point x="251" y="224" type="line"/>
      <point x="253" y="295" type="line"/>
      <point x="212" y="309" type="line"/>
      <point x="193" y="309" type="line"/>
      <point x="53" y="275" type="line"/>
      <point x="40" y="370" type="line"/>
      <point x="193" y="383" type="line"/>
      <point x="257" y="383" type="line"/>
      <point x="358" y="364" type="line"/>
      <point x="435" y="380" type="line"/>
      <point x="487" y="380" type="line"/>
      <point x="618" y="356" type="line"/>
    </contour>
    <contour>
      <point x="472" y="215" type="line"/>
      <point x="464" y="310" type="line"/>
      <point x="445" y="314" type="line"/>
      <point x="427" y="310" type="line"/>
      <point x="421" y="204" type="line"/>
    </contour>
    <contour>
      <point x="257" y="98" type="line"/>
      <point x="252" y="162" type="line"/>
      <point x="224" y="170" type="line"/>
      <point x="199" y="167" type="line"/>
      <point x="191" y="126" type="line"/>
      <point x="199" y="84" type="line"/>
      <point x="218" y="82" type="line"/>
    </contour>
  </outline>
</glyph>
<glyph name="ccedilla" format="1">
  <advance width="384"/>
  <unicode hex="00E7"/>
  <outline>
    <contour>
      <point x="359" y="369" type="line"/>
      <point x="344" y="271" type="line"/>
      <point x="240" y="307" type="line"/>
      <point x="211" y="302" type="line"/>
      <point x="201" y="188" type="line"/>
      <point x="211" y="73" type="line"/>
      <point x="240" y="68" type="line"/>
      <point x="340" y="95" type="line"/>
      <point x="358" y="11" type="line"/>
      <point x="279" y="-5" type="line"/>
      <point x="258" y="-5" type="line"/>
      <point x="304" y="-53" type="line"/>
      <point x="265" y="-104" type="line"/>
      <point x="90" y="-141" type="line"/>
      <point x="62" y="-88" type="line"/>
      <point x="143" y="-28" type="line"/>
      <point x="164" y="0" type="line"/>
      <point x="38" y="20" type="line"/>
      <point x="23" y="188" type="line"/>
      <point x="38" y="355" type="line"/>
      <point x="196" y="380" type="line"/>
      <point x="279" y="380" type="line"/>
    </contour>
  </outline>
</glyph>
<glyph name="eth" format="1">
  <advance width="462"/>
  <unicode hex="00F0"/>
  <outline>
    <contour>
      <point x="512" y="503" type="line"/>
      <point x="435" y="498" type="line"/>
      <point x="439" y="372" type="line"/>
      <point x="423" y="20" type="line"/>
      <point x="274" y="-5" type="line"/>
      <point x="196" y="-5" type="line"/>
      <point x="38" y="20" type="line"/>
      <point x="23" y="188" type="line"/>
      <point x="38" y="355" type="line"/>
      <point x="178" y="380" type="line"/>
      <point x="267" y="365" type="line"/>
      <point x="267" y="372" type="line"/>
      <point x="265" y="496" type="line"/>
      <point x="155" y="503" type="line"/>
      <point x="155" y="577" type="line"/>
      <point x="262" y="584" type="line"/>
      <point x="260" y="671" type="line"/>
      <point x="235" y="675" type="line"/>
      <point x="111" y="614" type="line"/>
      <point x="76" y="723" type="line"/>
      <point x="206" y="750" type="line"/>
      <point x="284" y="750" type="line"/>
      <point x="429" y="725" type="line"/>
      <point x="432" y="582" type="line"/>
      <point x="512" y="577" type="line"/>
    </contour>
    <contour>
      <point x="262" y="289" type="line"/>
      <point x="235" y="296" type="line"/>
      <point x="211" y="292" type="line"/>
      <point x="201" y="188" type="line"/>
      <point x="211" y="73" type="line"/>
      <point x="235" y="69" type="line"/>
      <point x="257" y="73" type="line"/>
    </contour>
  </outline>
</glyph>
<glyph name="oslash" format="1">
  <advance width="468"/>
  <unicode hex="00F8"/>
  <outline>
    <contour>
      <point x="445" y="188" type="line"/>
      <point x="430" y="20" type="line"/>
      <point x="274" y="-5" type="line"/>
      <point x="194" y="-5" type="line"/>
      <point x="136" y="-93" type="line"/>
      <point x="57" y="-63" type="line"/>
      <point x="85" y="13" type="line"/>
      <point x="38" y="20" type="line"/>
      <point x="23" y="188" type="line"/>
      <point x="38" y="355" type="line"/>
      <point x="196" y="380" type="line"/>
      <point x="274" y="380" type="line"/>
      <point x="332" y="469" type="line"/>
      <point x="411" y="439" type="line"/>
      <point x="382" y="362" type="line"/>
      <point x="430" y="355" type="line"/>
    </contour>
    <contour>
      <point x="267" y="187" type="line"/>
      <point x="257" y="302" type="line"/>
      <point x="234" y="306" type="line"/>
      <point x="211" y="302" type="line"/>
      <point x="201" y="187" type="line"/>
      <point x="211" y="73" type="line"/>
      <point x="234" y="69" type="line"/>
      <point x="257" y="73" type="line"/>
    </contour>
  </outline>
</glyph>
<glyph name="thorn" format="1">
  <advance width="482"/>
  <unicode hex="00FE"/>
  <outline>
    <contour>
      <point x="459" y="188" type="line"/>
      <point x="443" y="19" type="line"/>
      <point x="283" y="-5" type="line"/>
      <point x="217" y="30" type="line"/>
      <point x="226" y="-140" type="line"/>
      <point x="28" y="-140" type="line"/>
      <point x="40" y="305" type="line"/>
      <point x="28" y="750" type="line"/>
      <point x="224" y="750" type="line"/>
      <point x="212" y="347" type="line"/>
      <point x="282" y="380" type="line"/>
      <point x="443" y="356" type="line"/>
    </contour>
    <contour>
      <point x="281" y="189" type="line"/>
      <point x="269" y="286" type="line"/>
      <point x="232" y="293" type="line"/>
      <point x="211" y="283" type="line"/>
      <point x="215" y="91" type="line"/>
      <point x="232" y="82" type="line"/>
      <point x="269" y="89" type="line"/>
    </contour>
  </outline>
</glyph>
<glyph name="dotlessi" format="1">
  <advance width="257"/>
  <unicode hex="0131"/>
  <outline>
    <contour>
      <point x="225" y="0" type="line"/>
      <point x="32" y="0" type="line"/>
      <point x="41" y="189" type="line"/>
      <point x="32" y="375" type="line"/>
      <point x="225" y="375" type="line"/>
      <point x="216" y="189" type="line"/>
    </contour>
  </outline>
</glyph>
<glyph name="Lslash" format="1">
  <advance width="532"/>
  <unicode hex="0141"/>
  <outline>
    <contour>
      <point x="515" y="0" type="line"/>
      <point x="86" y="0" type="line"/>
      <point x="91" y="192" type="line"/>
      <point x="40" y="177" type="line"/>
      <point x="9" y="251" type="line"/>
      <point x="94" y="298" type="line"/>
      <point x="86" y="595" type="line"/>
      <point x="282" y="595" type="line"/>
      <point x="279" y="380" type="line"/>
      <point x="375" y="414" type="line"/>
      <point x="407" y="339" type="line"/>
      <point x="279" y="265" type="line"/>
      <point x="282" y="91" type="line"/>
      <point x="482" y="139" type="line"/>
    </contour>
  </outline>
</glyph>
<glyph name="lslash" format="1">
  <advance width="338"/>
  <unicode hex="0142"/>
  <outline>
    <contour>
      <point x="336" y="314" type="line"/>
      <point x="253" y="259" type="line"/>
      <point x="263" y="0" type="line"/>
      <point x="75" y="0" type="line"/>
      <point x="83" y="192" type="line"/>
      <point x="33" y="177" type="line"/>
      <point x="2" y="251" type="line"/>
      <point x="87" y="298" type="line"/>
      <point x="75" y="750" type="line"/>
      <point x="263" y="750" type="line"/>
      <point x="253" y="372" type="line"/>
      <point x="304" y="389" type="line"/>
    </contour>
  </outline>
</glyph>
<glyph name="OE" format="1">
  <advance width="868"/>
  <unicode hex="0152"/>
  <outline>
    <contour>
      <point x="852" y="0" type="line"/>
      <point x="261" y="0" type="line"/>
      <point x="62" y="51" type="line"/>
      <point x="30" y="297" type="line"/>
      <point x="62" y="544" type="line"/>
      <point x="261" y="595" type="line"/>
      <point x="850" y="595" type="line"/>
      <point x="818" y="456" type="line"/>
      <point x="595" y="504" type="line"/>
      <point x="592" y="351" type="line"/>
      <point x="772" y="371" type="line"/>
      <point x="772" y="234" type="line"/>
      <point x="592" y="255" type="line"/>
      <point x="595" y="91" type="line"/>
      <point x="822" y="139" type="line"/>
    </contour>
    <contour>
      <point x="407" y="297" type="line"/>
      <point x="401" y="500" type="line"/>
      <point x="331" y="500" type="line"/>
      <point x="253" y="488" type="line"/>
      <point x="228" y="297" type="line"/>
      <point x="253" y="107" type="line"/>
      <point x="331" y="95" type="line"/>
      <point x="401" y="95" type="line"/>
    </contour>
  </outline>
</glyph>
<glyph name="oe" format="1">
  <advance width="665"/>
  <unicode hex="0153"/>
  <outline>
    <contour>
      <point x="644" y="195" type="line"/>
      <point x="434" y="146" type="line"/>
      <point x="442" y="73" type="line"/>
      <point x="476" y="69" type="line"/>
      <point x="616" y="104" type="line"/>
      <point x="634" y="15" type="line"/>
      <point x="515" y="-5" type="line"/>
      <point x="446" y="-5" type="line"/>
      <point x="354" y="13" type="line"/>
      <point x="262" y="-5" type="line"/>
      <point x="196" y="-5" type="line"/>
      <point x="38" y="20" type="line"/>
      <point x="23" y="187" type="line"/>
      <point x="38" y="355" type="line"/>
      <point x="196" y="380" type="line"/>
      <point x="262" y="380" type="line"/>
      <point x="354" y="362" type="line"/>
      <point x="447" y="380" type="line"/>
      <point x="499" y="380" type="line"/>
      <point x="630" y="356" type="line"/>
    </contour>
    <contour>
      <point x="484" y="215" type="line"/>
      <point x="476" y="310" type="line"/>
      <point x="457" y="314" type="line"/>
      <point x="439" y="310" type="line"/>
      <point x="433" y="204" type="line"/>
    </contour>
    <contour>
      <point x="267" y="187" type="line"/>
      <point x="257" y="302" type="line"/>
      <point x="234" y="306" type="line"/>
      <point x="211" y="302" type="line"/>
      <point x="201" y="187" type="line"/>
      <point x="211" y="73" type="line"/>
      <point x="234" y="69" type="line"/>
      <point x="257" y="73" type="line"/>
    </contour>
  </outline>
</glyph>
<glyph name="florin" format="1">
  <advance width="430"/>
  <unicode hex="0192"/>
  <outline>
    <contour>
      <point x="420" y="579" type="line"/>
      <point x="368" y="459" type="line"/>
      <point x="250" y="513" type="line"/>
      <point x="244" y="317" type="line"/>
      <point x="336" y="309" type="line"/>
      <point x="336" y="216" type="line"/>
      <point x="244" y="208" type="line"/>
      <point x="251" y="-140" type="line"/>
      <point x="63" y="-140" type="line"/>
      <point x="73" y="209" type="line"/>
      <point x="22" y="216" type="line"/>
      <point x="22" y="309" type="line"/>
      <point x="73" y="315" type="line"/>
      <point x="63" y="582" type="line"/>
      <point x="236" y="602" type="line"/>
    </contour>
  </outline>
</glyph>
<glyph name="circumflex" format="1">
  <advance width="438"/>
  <unicode hex="02C6"/>
  <outline>
    <contour>
      <point x="384" y="448" type="line"/>
      <point x="348" y="398" type="line"/>
      <point x="219" y="445" type="line"/>
      <point x="90" y="398" type="line"/>
      <point x="54" y="448" type="line"/>
      <point x="127" y="511" type="line"/>
      <point x="172" y="574" type="line"/>
      <point x="266" y="574" type="line"/>
      <point x="311" y="511" type="line"/>
    </contour>
  </outline>
</glyph>
<glyph name="caron" format="1">
  <advance width="438"/>
  <unicode hex="02C7"/>
  <outline>
    <contour>
      <point x="384" y="531" type="line"/>
      <point x="311" y="468" type="line"/>
      <point x="266" y="405" type="line"/>
      <point x="172" y="405" type="line"/>
      <point x="127" y="468" type="line"/>
      <point x="54" y="531" type="line"/>
      <point x="90" y="581" type="line"/>
      <point x="219" y="534" type="line"/>
      <point x="348" y="581" type="line"/>
    </contour>
  </outline>
</glyph>
<glyph name="breve" format="1">
  <advance width="438"/>
  <unicode hex="02D8"/>
  <outline>
    <contour>
      <point x="390" y="541" type="line"/>
      <point x="339" y="444" type="line"/>
      <point x="266" y="405" type="line"/>
      <point x="172" y="405" type="line"/>
      <point x="99" y="444" type="line"/>
      <point x="48" y="541" type="line"/>
      <point x="102" y="585" type="line"/>
      <point x="177" y="518" type="line"/>
      <point x="261" y="518" type="line"/>
      <point x="336" y="585" type="line"/>
    </contour>
  </outline>
</glyph>
<glyph name="dotaccent" format="1">
  <advance width="438"/>
  <unicode hex="02D9"/>
  <outline>
    <contour>
      <point x="293" y="482" type="line"/>
      <point x="288" y="409" type="line"/>
      <point x="150" y="409" type="line"/>
      <point x="145" y="482" type="line"/>
      <point x="150" y="555" type="line"/>
      <point x="288" y="555" type="line"/>
    </contour>
  </outline>
</glyph>
<glyph name="ring" format="1">
  <advance width="438"/>
  <unicode hex="02DA"/>
  <outline>
    <contour>
      <point x="356" y="505" type="line"/>
      <point x="341" y="422" type="line"/>
      <point x="254" y="402" type="line"/>
      <point x="184" y="402" type="line"/>
      <point x="97" y="421" type="line"/>
      <point x="82" y="504" type="line"/>
      <point x="97" y="587" type="line"/>
      <point x="184" y="606" type="line"/>
      <point x="254" y="606" type="line"/>
      <point x="341" y="587" type="line"/>
    </contour>
    <contour>
      <point x="251" y="504" type="line"/>
      <point x="243" y="551" type="line"/>
      <point x="219" y="554" type="line"/>
      <point x="195" y="551" type="line"/>
      <point x="187" y="505" type="line"/>
      <point x="195" y="458" type="line"/>
      <point x="219" y="456" type="line"/>
      <point x="243" y="458" type="line"/>
    </contour>
  </outline>
</glyph>
<glyph name="ogonek" format="1">
  <advance width="438"/>
  <unicode hex="02DB"/>
  <outline>
    <contour>
      <point x="346" y="-88" type="line"/>
      <point x="318" y="-141" type="line"/>
      <point x="143" y="-104" type="line"/>
      <point x="104" y="-53" type="line"/>
      <point x="205" y="52" type="line"/>
      <point x="265" y="-28" type="line"/>
    </contour>
  </outline>
</glyph>
<glyph name="tilde" format="1">
  <advance width="438"/>
  <unicode hex="02DC"/>
  <outline>
    <contour>
      <point x="411" y="530" type="line"/>
      <point x="350" y="464" type="line"/>
      <point x="310" y="405" type="line"/>
      <point x="215" y="405" type="line"/>
      <point x="154" y="454" type="line"/>
      <point x="78" y="397" type="line"/>
      <point x="27" y="442" type="line"/>
      <point x="88" y="507" type="line"/>
      <point x="128" y="566" type="line"/>
      <point x="223" y="566" type="line"/>
      <point x="284" y="517" type="line"/>
      <point x="360" y="574" type="line"/>
    </contour>
  </outline>
</glyph>
<glyph name="hungarumlaut" format="1">
  <advance width="438"/>
  <unicode hex="02DD"/>
  <outline>
    <contour>
      <point x="410" y="533" type="line"/>
      <point x="383" y="477" type="line"/>
      <point x="229" y="398" type="line"/>
      <point x="196" y="440" type="line"/>
      <point x="248" y="502" type="line"/>
      <point x="288" y="591" type="line"/>
    </contour>
    <contour>
      <point x="240" y="533" type="line"/>
      <point x="214" y="477" type="line"/>
      <point x="59" y="398" type="line"/>
      <point x="26" y="438" type="line"/>
      <point x="76" y="502" type="line"/>
      <point x="118" y="591" type="line"/>
    </contour>
  </outline>
</glyph>
<glyph name="endash" format="1">
  <advance width="460"/>
  <unicode hex="2013"/>
  <outline>
    <contour>
      <point x="424" y="171" type="line"/>
      <point x="230" y="154" type="line"/>
      <point x="36" y="171" type="line"/>
      <point x="36" y="283" type="line"/>
      <point x="230" y="300" type="line"/>
      <point x="424" y="283" type="line"/>
    </contour>
  </outline>
</glyph>
<glyph name="emdash" format="1">
  <advance width="615"/>
  <unicode hex="2014"/>
  <outline>
    <contour>
      <point x="579" y="171" type="line"/>
      <point x="307" y="148" type="line"/>
      <point x="36" y="171" type="line"/>
      <point x="36" y="283" type="line"/>
      <point x="307" y="306" type="line"/>
      <point x="579" y="283" type="line"/>
    </contour>
  </outline>
</glyph>
<glyph name="quoteleft" format="1">
  <advance width="263"/>
  <unicode hex="2018"/>
  <unicode hex="02BB"/>
  <outline>
    <contour>
      <point x="242" y="581" type="line"/>
      <point x="217" y="463" type="line"/>
      <point x="234" y="289" type="line"/>
      <point x="27" y="289" type="line"/>
      <point x="22" y="424" type="line"/>
      <point x="161" y="612" type="line"/>
    </contour>
  </outline>
</glyph>
<glyph name="quoteright" format="1">
  <advance width="263"/>
  <unicode hex="2019"/>
  <unicode hex="02BC"/>
  <outline>
    <contour>
      <point x="241" y="460" type="line"/>
      <point x="102" y="272" type="line"/>
      <point x="21" y="303" type="line"/>
      <point x="46" y="421" type="line"/>
      <point x="29" y="595" type="line"/>
      <point x="236" y="595" type="line"/>
    </contour>
  </outline>
</glyph>
<glyph name="quotesinglbase" format="1">
  <advance width="263"/>
  <unicode hex="201A"/>
  <outline>
    <contour>
      <point x="241" y="51" type="line"/>
      <point x="102" y="-137" type="line"/>
      <point x="21" y="-106" type="line"/>
      <point x="46" y="12" type="line"/>
      <point x="29" y="186" type="line"/>
      <point x="236" y="186" type="line"/>
    </contour>
  </outline>
</glyph>
<glyph name="quotedblleft" format="1">
  <advance width="511"/>
  <unicode hex="201C"/>
  <outline>
    <contour>
      <point x="490" y="581" type="line"/>
      <point x="465" y="463" type="line"/>
      <point x="482" y="289" type="line"/>
      <point x="275" y="289" type="line"/>
      <point x="270" y="424" type="line"/>
      <point x="409" y="612" type="line"/>
    </contour>
    <contour>
      <point x="242" y="581" type="line"/>
      <point x="217" y="463" type="line"/>
      <point x="234" y="289" type="line"/>
      <point x="27" y="289" type="line"/>
      <point x="22" y="424" type="line"/>
      <point x="161" y="612" type="line"/>
    </contour>
  </outline>
</glyph>
<glyph name="quotedblright" format="1">
  <advance width="511"/>
  <unicode hex="201D"/>
  <outline>
    <contour>
      <point x="489" y="460" type="line"/>
      <point x="350" y="272" type="line"/>
      <point x="269" y="303" type="line"/>
      <point x="294" y="421" type="line"/>
      <point x="277" y="595" type="line"/>
      <point x="484" y="595" type="line"/>
    </contour>
    <contour>
      <point x="241" y="460" type="line"/>
      <point x="102" y="272" type="line"/>
      <point x="21" y="303" type="line"/>
      <point x="46" y="421" type="line"/>
      <point x="29" y="595" type="line"/>
      <point x="236" y="595" type="line"/>
    </contour>
  </outline>
</glyph>
<glyph name="quotedblbase" format="1">
  <advance width="511"/>
  <unicode hex="201E"/>
  <outline>
    <contour>
      <point x="489" y="51" type="line"/>
      <point x="350" y="-137" type="line"/>
      <point x="269" y="-106" type="line"/>
      <point x="294" y="12" type="line"/>
      <point x="277" y="186" type="line"/>
      <point x="484" y="186" type="line"/>
    </contour>
    <contour>
      <point x="241" y="51" type="line"/>
      <point x="102" y="-137" type="line"/>
      <point x="21" y="-106" type="line"/>
      <point x="46" y="12" type="line"/>
      <point x="29" y="186" type="line"/>
      <point x="236" y="186" type="line"/>
    </contour>
  </outline>
</glyph>
<glyph name="dagger" format="1">
  <advance width="501"/>
  <unicode hex="2020"/>
  <outline>
    <contour>
      <point x="476" y="328" type="line"/>
      <point x="333" y="337" type="line"/>
      <point x="344" y="0" type="line"/>
      <point x="157" y="0" type="line"/>
      <point x="168" y="337" type="line"/>
      <point x="25" y="328" type="line"/>
      <point x="25" y="479" type="line"/>
      <point x="167" y="470" type="line"/>
      <point x="157" y="595" type="line"/>
      <point x="344" y="595" type="line"/>
      <point x="334" y="470" type="line"/>
      <point x="476" y="479" type="line"/>
    </contour>
  </outline>
</glyph>
<glyph name="daggerdbl" format="1">
  <advance width="501"/>
  <unicode hex="2021"/>
  <outline>
    <contour>
      <point x="468" y="117" type="line"/>
      <point x="337" y="126" type="line"/>
      <point x="344" y="0" type="line"/>
      <point x="157" y="0" type="line"/>
      <point x="164" y="126" type="line"/>
      <point x="34" y="117" type="line"/>
      <point x="34" y="256" type="line"/>
      <point x="172" y="247" type="line"/>
      <point x="175" y="299" type="line"/>
      <point x="172" y="349" type="line"/>
      <point x="34" y="340" type="line"/>
      <point x="34" y="479" type="line"/>
      <point x="165" y="470" type="line"/>
      <point x="157" y="595" type="line"/>
      <point x="344" y="595" type="line"/>
      <point x="337" y="470" type="line"/>
      <point x="468" y="479" type="line"/>
      <point x="468" y="340" type="line"/>
      <point x="329" y="349" type="line"/>
      <point x="327" y="299" type="line"/>
      <point x="329" y="247" type="line"/>
      <point x="468" y="256" type="line"/>
    </contour>
  </outline>
</glyph>
<glyph name="ellipsis" format="1">
  <advance width="789"/>
  <unicode hex="2026"/>
  <outline>
    <contour>
      <point x="763" y="93" type="line"/>
      <point x="757" y="0" type="line"/>
      <point x="557" y="0" type="line"/>
      <point x="552" y="93" type="line"/>
      <point x="557" y="186" type="line"/>
      <point x="757" y="186" type="line"/>
    </contour>
    <contour>
      <point x="500" y="93" type="line"/>
      <point x="494" y="0" type="line"/>
      <point x="294" y="0" type="line"/>
      <point x="289" y="93" type="line"/>
      <point x="294" y="186" type="line"/>
      <point x="494" y="186" type="line"/>
    </contour>
    <contour>
      <point x="237" y="93" type="line"/>
      <point x="231" y="0" type="line"/>
      <point x="31" y="0" type="line"/>
      <point x="26" y="93" type="line"/>
      <point x="31" y="186" type="line"/>
      <point x="231" y="186" type="line"/>
    </contour>
  </outline>
</glyph>
<glyph name="perthousand" format="1">
  <advance width="1219"/>
  <unicode hex="2030"/>
  <outline>
    <contour>
      <point x="1186" y="177" type="line"/>
      <point x="1166" y="26" type="line"/>
      <point x="1034" y="-5" type="line"/>
      <point x="923" y="-5" type="line"/>
      <point x="855" y="10" type="line"/>
      <point x="790" y="-5" type="line"/>
      <point x="679" y="-5" type="line"/>
      <point x="547" y="25" type="line"/>
      <point x="527" y="176" type="line"/>
      <point x="534" y="227" type="line"/>
      <point x="528" y="216" type="line"/>
      <point x="346" y="-16" type="line"/>
      <point x="262" y="16" type="line"/>
      <point x="385" y="258" type="line"/>
      <point x="296" y="237" type="line"/>
      <point x="185" y="237" type="line"/>
      <point x="53" y="267" type="line"/>
      <point x="33" y="418" type="line"/>
      <point x="53" y="569" type="line"/>
      <point x="185" y="600" type="line"/>
      <point x="296" y="600" type="line"/>
      <point x="428" y="570" type="line"/>
      <point x="448" y="419" type="line"/>
      <point x="441" y="367" type="line"/>
      <point x="447" y="379" type="line"/>
      <point x="629" y="611" type="line"/>
      <point x="713" y="579" type="line"/>
      <point x="590" y="337" type="line"/>
      <point x="679" y="358" type="line"/>
      <point x="790" y="358" type="line"/>
      <point x="857" y="343" type="line"/>
      <point x="923" y="358" type="line"/>
      <point x="1034" y="358" type="line"/>
      <point x="1166" y="328" type="line"/>
    </contour>
    <contour>
      <point x="297" y="418" type="line"/>
      <point x="284" y="520" type="line"/>
      <point x="241" y="527" type="line"/>
      <point x="198" y="520" type="line"/>
      <point x="184" y="419" type="line"/>
      <point x="198" y="317" type="line"/>
      <point x="240" y="310" type="line"/>
      <point x="284" y="317" type="line"/>
    </contour>
    <contour>
      <point x="1035" y="176" type="line"/>
      <point x="1022" y="278" type="line"/>
      <point x="979" y="285" type="line"/>
      <point x="936" y="278" type="line"/>
      <point x="922" y="177" type="line"/>
      <point x="936" y="75" type="line"/>
      <point x="978" y="68" type="line"/>
      <point x="1022" y="75" type="line"/>
    </contour>
    <contour>
      <point x="791" y="176" type="line"/>
      <point x="778" y="278" type="line"/>
      <point x="735" y="285" type="line"/>
      <point x="692" y="278" type="line"/>
      <point x="678" y="177" type="line"/>
      <point x="692" y="75" type="line"/>
      <point x="734" y="68" type="line"/>
      <point x="778" y="75" type="line"/>
    </contour>
  </outline>
</glyph>
<glyph name="guilsinglleft" format="1">
  <advance width="320"/>
  <unicode hex="2039"/>
  <outline>
    <contour>
      <point x="299" y="52" type="line"/>
      <point x="221" y="-3" type="line"/>
      <point x="92" y="100" type="line"/>
      <point x="22" y="138" type="line"/>
      <point x="22" y="242" type="line"/>
      <point x="92" y="280" type="line"/>
      <point x="221" y="383" type="line"/>
      <point x="299" y="328" type="line"/>
      <point x="226" y="190" type="line"/>
    </contour>
  </outline>
</glyph>
<glyph name="guilsinglright" format="1">
  <advance width="320"/>
  <unicode hex="203A"/>
  <outline>
    <contour>
      <point x="298" y="138" type="line"/>
      <point x="228" y="100" type="line"/>
      <point x="99" y="-3" type="line"/>
      <point x="22" y="52" type="line"/>
      <point x="95" y="190" type="line"/>
      <point x="22" y="328" type="line"/>
      <point x="99" y="383" type="line"/>
      <point x="228" y="280" type="line"/>
      <point x="298" y="242" type="line"/>
    </contour>
  </outline>
</glyph>
<glyph name="fraction" format="1">
  <advance width="466"/>
  <unicode hex="2044"/>
  <outline>
    <contour>
      <point x="466" y="579" type="line"/>
      <point x="310" y="230" type="line"/>
      <point x="89" y="-20" type="line"/>
      <point x="0" y="16" type="line"/>
      <point x="155" y="365" type="line"/>
      <point x="377" y="615" type="line"/>
    </contour>
  </outline>
</glyph>
<glyph name="Euro" format="1">
  <advance width="613"/>
  <unicode hex="20AC"/>
  <outline>
    <contour>
      <point x="18" y="188" type="line"/>
      <point x="18" y="265" type="line"/>
      <point x="93" y="269" type="line"/>
      <point x="90" y="297" type="line"/>
      <point x="93" y="325" type="line"/>
      <point x="18" y="329" type="line"/>
      <point x="18" y="406" type="line"/>
      <point x="103" y="410" type="line"/>
      <point x="120" y="549" type="line"/>
      <point x="306" y="600" type="line"/>
      <point x="432" y="600" type="line"/>
      <point x="582" y="570" type="line"/>
      <point x="542" y="426" type="line"/>
      <point x="386" y="506" type="line"/>
      <point x="296" y="497" type="line"/>
      <point x="286" y="414" type="line"/>
      <point x="430" y="406" type="line"/>
      <point x="430" y="329" type="line"/>
      <point x="275" y="320" type="line"/>
      <point x="272" y="297" type="line"/>
      <point x="275" y="274" type="line"/>
      <point x="430" y="265" type="line"/>
      <point x="430" y="188" type="line"/>
      <point x="286" y="180" type="line"/>
      <point x="296" y="98" type="line"/>
      <point x="385" y="90" type="line"/>
      <point x="548" y="154" type="line"/>
      <point x="576" y="42" type="line"/>
      <point x="426" y="-5" type="line"/>
      <point x="306" y="-5" type="line"/>
      <point x="120" y="46" type="line"/>
      <point x="104" y="184" type="line"/>
    </contour>
  </outline>
</glyph>
<glyph name="uni2117" format="1">
  <advance width="701"/>
  <unicode hex="2117"/>
  <outline>
    <contour>
      <point x="655" y="297" type="line"/>
      <point x="621" y="46" type="line"/>
      <point x="417" y="-5" type="line"/>
      <point x="284" y="-5" type="line"/>
      <point x="81" y="46" type="line"/>
      <point x="47" y="297" type="line"/>
      <point x="81" y="549" type="line"/>
      <point x="284" y="600" type="line"/>
      <point x="417" y="600" type="line"/>
      <point x="621" y="549" type="line"/>
    </contour>
    <contour>
      <point x="612" y="297" type="line"/>
      <point x="583" y="516" type="line"/>
      <point x="412" y="559" type="line"/>
      <point x="290" y="559" type="line"/>
      <point x="117" y="516" type="line"/>
      <point x="89" y="297" type="line"/>
      <point x="117" y="78" type="line"/>
      <point x="290" y="36" type="line"/>
      <point x="412" y="36" type="line"/>
      <point x="583" y="78" type="line"/>
    </contour>
    <contour>
      <point x="531" y="363" type="line"/>
      <point x="518" y="268" type="line"/>
      <point x="422" y="232" type="line"/>
      <point x="320" y="232" type="line"/>
      <point x="324" y="107" type="line"/>
      <point x="189" y="107" type="line"/>
      <point x="194" y="300" type="line"/>
      <point x="189" y="494" type="line"/>
      <point x="422" y="494" type="line"/>
      <point x="518" y="458" type="line"/>
    </contour>
    <contour>
      <point x="400" y="363" type="line"/>
      <point x="391" y="428" type="line"/>
      <point x="371" y="434" type="line"/>
      <point x="322" y="434" type="line"/>
      <point x="319" y="293" type="line"/>
      <point x="371" y="293" type="line"/>
      <point x="391" y="298" type="line"/>
    </contour>
  </outline>
</glyph>
<glyph name="trademark" format="1">
  <advance width="910"/>
  <unicode hex="2122"/>
  <outline>
    <contour>
      <point x="885" y="209" type="line"/>
      <point x="749" y="209" type="line"/>
      <point x="756" y="411" type="line"/>
      <point x="667" y="209" type="line"/>
      <point x="584" y="209" type="line"/>
      <point x="485" y="411" type="line"/>
      <point x="498" y="209" type="line"/>
      <point x="413" y="209" type="line"/>
      <point x="418" y="402" type="line"/>
      <point x="413" y="595" type="line"/>
      <point x="552" y="595" type="line"/>
      <point x="596" y="478" type="line"/>
      <point x="653" y="355" type="line"/>
      <point x="705" y="482" type="line"/>
      <point x="743" y="595" type="line"/>
      <point x="885" y="595" type="line"/>
      <point x="880" y="402" type="line"/>
    </contour>
    <contour>
      <point x="380" y="595" type="line"/>
      <point x="360" y="504" type="line"/>
      <point x="263" y="528" type="line"/>
      <point x="258" y="401" type="line"/>
      <point x="264" y="209" type="line"/>
      <point x="128" y="209" type="line"/>
      <point x="134" y="401" type="line"/>
      <point x="130" y="528" type="line"/>
      <point x="34" y="504" type="line"/>
      <point x="13" y="595" type="line"/>
    </contour>
  </outline>
</glyph>
<glyph name="radical" format="1">
  <advance width="567"/>
  <unicode hex="221A"/>
  <outline>
    <contour>
      <point x="559" y="566" type="line"/>
      <point x="439" y="276" type="line"/>
      <point x="350" y="-2" type="line"/>
      <point x="164" y="-2" type="line"/>
      <point x="90" y="151" type="line"/>
      <point x="6" y="259" type="line"/>
      <point x="187" y="374" type="line"/>
      <point x="269" y="164" type="line"/>
      <point x="351" y="377" type="line"/>
      <point x="411" y="608" type="line"/>
    </contour>
  </outline>
</glyph>
<glyph name="apple" format="1">
  <advance width="719"/>
  <unicode hex="F8FF"/>
  <outline>
    <contour>
      <point x="695" y="226" type="line"/>
      <point x="438" y="248" type="line"/>
      <point x="448" y="174" type="line"/>
      <point x="584" y="192" type="line"/>
      <point x="584" y="62" type="line"/>
      <point x="459" y="77" type="line"/>
      <point x="474" y="0" type="line"/>
      <point x="245" y="0" type="line"/>
      <point x="259" y="77" type="line"/>
      <point x="135" y="62" type="line"/>
      <point x="135" y="192" type="line"/>
      <point x="271" y="174" type="line"/>
      <point x="281" y="248" type="line"/>
      <point x="23" y="226" type="line"/>
      <point x="23" y="369" type="line"/>
      <point x="281" y="349" type="line"/>
      <point x="271" y="419" type="line"/>
      <point x="135" y="403" type="line"/>
      <point x="135" y="533" type="line"/>
      <point x="259" y="516" type="line"/>
      <point x="245" y="595" type="line"/>
      <point x="474" y="595" type="line"/>
      <point x="459" y="518" type="line"/>
      <point x="584" y="533" type="line"/>
      <point x="584" y="403" type="line"/>
      <point x="448" y="421" type="line"/>
      <point x="438" y="349" type="line"/>
      <point x="695" y="369" type="line"/>
    </contour>
  </outline>
</glyph>
<glyph name="f_f" format="1">
  <advance width="566"/>
  <unicode hex="FB00"/>
  <outline>
    <contour>
      <point x="583" y="649" type="line"/>
      <point x="496" y="667" type="line"/>
      <point x="486" y="380" type="line"/>
      <point x="558" y="374" type="line"/>
      <point x="558" y="300" type="line"/>
      <point x="486" y="293" type="line"/>
      <point x="497" y="0" type="line"/>
      <point x="307" y="0" type="line"/>
      <point x="318" y="294" type="line"/>
      <point x="272" y="299" type="line"/>
      <point x="226" y="293" type="line"/>
      <point x="237" y="0" type="line"/>
      <point x="47" y="0" type="line"/>
      <point x="58" y="294" type="line"/>
      <point x="22" y="300" type="line"/>
      <point x="22" y="374" type="line"/>
      <point x="57" y="380" type="line"/>
      <point x="47" y="730" type="line"/>
      <point x="238" y="750" type="line"/>
      <point x="344" y="734" type="line"/>
      <point x="498" y="750" type="line"/>
      <point x="583" y="744" type="line"/>
    </contour>
    <contour>
      <point x="317" y="380" type="line"/>
      <point x="310" y="640" type="line"/>
      <point x="257" y="662" type="line"/>
      <point x="236" y="659" type="line"/>
      <point x="226" y="380" type="line"/>
      <point x="272" y="375" type="line"/>
    </contour>
  </outline>
</glyph>
<glyph name="f_f_i" format="1">
  <advance width="775"/>
  <unicode hex="FB03"/>
  <outline>
    <contour>
      <point x="745" y="0" type="line"/>
      <point x="552" y="0" type="line"/>
      <point x="561" y="189" type="line"/>
      <point x="556" y="295" type="line"/>
      <point x="486" y="293" type="line"/>
      <point x="497" y="0" type="line"/>
      <point x="307" y="0" type="line"/>
      <point x="318" y="294" type="line"/>
      <point x="272" y="299" type="line"/>
      <point x="226" y="293" type="line"/>
      <point x="237" y="0" type="line"/>
      <point x="47" y="0" type="line"/>
      <point x="58" y="294" type="line"/>
      <point x="22" y="300" type="line"/>
      <point x="22" y="374" type="line"/>
      <point x="57" y="380" type="line"/>
      <point x="47" y="730" type="line"/>
      <point x="238" y="750" type="line"/>
      <point x="238" y="750"/>
      <point x="345" y="734"/>
      <point x="344" y="734" type="curve"/>
      <point x="501" y="750" type="line"/>
      <point x="728" y="728" type="line"/>
      <point x="680" y="581" type="line"/>
      <point x="521" y="663" type="line"/>
      <point x="496" y="660" type="line"/>
      <point x="486" y="380" type="line"/>
      <point x="745" y="375" type="line"/>
      <point x="736" y="189" type="line"/>
    </contour>
    <contour>
      <point x="317" y="380" type="line"/>
      <point x="310" y="640" type="line"/>
      <point x="257" y="662" type="line"/>
      <point x="236" y="659" type="line"/>
      <point x="226" y="380" type="line"/>
      <point x="272" y="375" type="line"/>
    </contour>
  </outline>
</glyph>
<glyph name="f_f_l" format="1">
  <advance width="788"/>
  <unicode hex="FB04"/>
  <outline>
    <contour>
      <point x="758" y="0" type="line"/>
      <point x="562" y="0" type="line"/>
      <point x="574" y="302" type="line"/>
      <point x="565" y="642" type="line"/>
      <point x="517" y="662" type="line"/>
      <point x="496" y="659" type="line"/>
      <point x="486" y="380" type="line"/>
      <point x="538" y="374" type="line"/>
      <point x="538" y="300" type="line"/>
      <point x="486" y="293" type="line"/>
      <point x="497" y="0" type="line"/>
      <point x="307" y="0" type="line"/>
      <point x="318" y="294" type="line"/>
      <point x="272" y="299" type="line"/>
      <point x="226" y="293" type="line"/>
      <point x="237" y="0" type="line"/>
      <point x="47" y="0" type="line"/>
      <point x="58" y="294" type="line"/>
      <point x="22" y="300" type="line"/>
      <point x="22" y="374" type="line"/>
      <point x="57" y="380" type="line"/>
      <point x="47" y="730" type="line"/>
      <point x="238" y="750" type="line"/>
      <point x="344" y="734" type="line"/>
      <point x="498" y="750" type="line"/>
      <point x="562" y="741" type="line"/>
      <point x="562" y="750" type="line"/>
      <point x="758" y="750" type="line"/>
      <point x="746" y="302" type="line"/>
    </contour>
    <contour>
      <point x="317" y="380" type="line"/>
      <point x="310" y="640" type="line"/>
      <point x="257" y="662" type="line"/>
      <point x="236" y="659" type="line"/>
      <point x="226" y="380" type="line"/>
      <point x="272" y="375" type="line"/>
    </contour>
  </outline>
</glyph>
<glyph name="bullet" format="1">
  <advance width="419"/>
  <outline>
    <contour>
      <point x="383" y="229" type="line"/>
      <point x="374" y="57" type="line"/>
      <point x="210" y="48" type="line"/>
      <point x="45" y="57" type="line"/>
      <point x="36" y="229" type="line"/>
      <point x="45" y="396" type="line"/>
      <point x="210" y="405" type="line"/>
      <point x="374" y="396" type="line"/>
    </contour>
  </outline>
</glyph>
<glyph name="f_i" format="1">
  <advance width="515"/>
  <outline>
    <contour>
      <point x="485" y="0" type="line"/>
      <point x="292" y="0" type="line"/>
      <point x="301" y="189" type="line"/>
      <point x="296" y="295" type="line"/>
      <point x="226" y="293" type="line"/>
      <point x="237" y="0" type="line"/>
      <point x="47" y="0" type="line"/>
      <point x="58" y="294" type="line"/>
      <point x="22" y="300" type="line"/>
      <point x="22" y="374" type="line"/>
      <point x="57" y="380" type="line"/>
      <point x="47" y="730" type="line"/>
      <point x="241" y="750" type="line"/>
      <point x="468" y="728" type="line"/>
      <point x="420" y="581" type="line"/>
      <point x="261" y="663" type="line"/>
      <point x="236" y="660" type="line"/>
      <point x="226" y="380" type="line"/>
      <point x="485" y="375" type="line"/>
      <point x="476" y="189" type="line"/>
    </contour>
  </outline>
</glyph>
<glyph name="f_l" format="1">
  <advance width="528"/>
  <outline>
    <contour>
      <point x="498" y="0" type="line"/>
      <point x="302" y="0" type="line"/>
      <point x="314" y="302" type="line"/>
      <point x="305" y="642" type="line"/>
      <point x="257" y="662" type="line"/>
      <point x="236" y="659" type="line"/>
      <point x="226" y="380" type="line"/>
      <point x="278" y="374" type="line"/>
      <point x="278" y="300" type="line"/>
      <point x="226" y="293" type="line"/>
      <point x="237" y="0" type="line"/>
      <point x="47" y="0" type="line"/>
      <point x="58" y="294" type="line"/>
      <point x="22" y="300" type="line"/>
      <point x="22" y="374" type="line"/>
      <point x="57" y="380" type="line"/>
      <point x="47" y="730" type="line"/>
      <point x="238" y="750" type="line"/>
      <point x="302" y="741" type="line"/>
      <point x="302" y="750" type="line"/>
      <point x="498" y="750" type="line"/>
      <point x="486" y="302" type="line"/>
    </contour>
  </outline>
</glyph>
<glyph name="g.salt" format="1">
  <advance width="482"/>
  <outline>
    <contour>
      <point x="453" y="375" type="line"/>
      <point x="448" y="115" type="line"/>
      <point x="452" y="-84" type="line"/>
      <point x="288" y="-140" type="line"/>
      <point x="162" y="-140" type="line"/>
      <point x="12" y="-121" type="line"/>
      <point x="38" y="-27" type="line"/>
      <point x="197" y="-72" type="line"/>
      <point x="260" y="-72" type="line"/>
      <point x="263" y="31" type="line"/>
      <point x="199" y="-5" type="line"/>
      <point x="38" y="19" type="line"/>
      <point x="23" y="188" type="line"/>
      <point x="38" y="356" type="line"/>
      <point x="200" y="380" type="line"/>
      <point x="263" y="346" type="line"/>
      <point x="262" y="375" type="line"/>
    </contour>
    <contour>
      <point x="269" y="116" type="line"/>
      <point x="267" y="284" type="line"/>
      <point x="250" y="293" type="line"/>
      <point x="212" y="286" type="line"/>
      <point x="201" y="188" type="line"/>
      <point x="212" y="89" type="line"/>
      <point x="250" y="82" type="line"/>
      <point x="266" y="90" type="line"/>
    </contour>
  </outline>
</glyph>
<glyph name="macron" format="1">
  <advance width="438"/>
  <outline>
    <contour>
      <point x="356" y="424" type="line"/>
      <point x="219" y="412" type="line"/>
      <point x="82" y="424" type="line"/>
      <point x="82" y="499" type="line"/>
      <point x="219" y="512" type="line"/>
      <point x="356" y="499" type="line"/>
    </contour>
  </outline>
</glyph>
<glyph name="registered" format="1">
  <advance width="701"/>
  <outline>
    <contour>
      <point x="655" y="297" type="line"/>
      <point x="621" y="46" type="line"/>
      <point x="417" y="-5" type="line"/>
      <point x="284" y="-5" type="line"/>
      <point x="81" y="46" type="line"/>
      <point x="47" y="297" type="line"/>
      <point x="81" y="549" type="line"/>
      <point x="284" y="600" type="line"/>
      <point x="417" y="600" type="line"/>
      <point x="621" y="549" type="line"/>
    </contour>
    <contour>
      <point x="612" y="297" type="line"/>
      <point x="583" y="516" type="line"/>
      <point x="412" y="559" type="line"/>
      <point x="290" y="559" type="line"/>
      <point x="117" y="516" type="line"/>
      <point x="89" y="297" type="line"/>
      <point x="117" y="78" type="line"/>
      <point x="290" y="36" type="line"/>
      <point x="412" y="36" type="line"/>
      <point x="583" y="78" type="line"/>
    </contour>
    <contour>
      <point x="554" y="168" type="line"/>
      <point x="448" y="98" type="line"/>
      <point x="310" y="256" type="line"/>
      <point x="314" y="107" type="line"/>
      <point x="178" y="107" type="line"/>
      <point x="183" y="300" type="line"/>
      <point x="178" y="494" type="line"/>
      <point x="411" y="494" type="line"/>
      <point x="507" y="456" type="line"/>
      <point x="520" y="372" type="line"/>
      <point x="507" y="289" type="line"/>
      <point x="436" y="264" type="line"/>
    </contour>
    <contour>
      <point x="390" y="369" type="line"/>
      <point x="381" y="428" type="line"/>
      <point x="361" y="434" type="line"/>
      <point x="312" y="434" type="line"/>
      <point x="308" y="306" type="line"/>
      <point x="361" y="306" type="line"/>
      <point x="381" y="311" type="line"/>
    </contour>
  </outline>
</glyph>
